<svg width="521" height="654" viewBox="0 0 521 654" fill="none" xmlns="http://www.w3.org/2000/svg">
<path d="M338.418 3.81849C351.691 -1.26174 358.449 -1.28386 368.805 3.81849C368.805 3.81849 364.064 0.450292 369.156 4.07187C374.247 7.69345 383.923 11.1707 388.597 15.5843C396.156 22.7233 403.85 30.4925 411.244 37.8293L457.565 83.9264C466.507 92.8203 475.553 101.617 484.7 110.316C498.216 123.206 510.125 131.479 513.518 150.873C518.843 181.312 489.5 204.196 469.043 223.694L430.091 261.214L394.861 295.313C387.313 302.594 378.545 311.607 370.13 317.662C390.147 335.242 410.915 356.677 430.607 374.999C448.136 391.13 465.395 407.532 482.376 424.199C498.434 439.663 519.929 455.898 520.96 479.285C521.628 494.431 514.124 507.535 504.005 518.654C483.956 539.01 461.896 558.372 441.072 578.108C428.277 590.464 415.32 602.66 402.204 614.694C386.07 629.784 372.521 644.28 350.719 651.114C348.916 651.673 346.024 652.617 344.481 653.434H332.576C331.027 652.536 322.589 649.737 320.101 648.698C312.41 645.308 303.41 639.211 297.353 633.532C278.444 615.793 259.331 598.065 240.478 580.286L219.582 560.551C214.063 555.316 203.958 547.296 203.07 539.68C202.478 534.601 210.488 526.859 215.139 527.45C223.137 528.463 232.448 538.606 238.049 543.806C246.667 551.724 255.143 559.784 263.472 567.98C274.142 578.36 285.471 588.477 296.254 599.008C305.887 607.829 314.886 617.796 325.596 625.391C328.8 627.666 336.251 629.789 340.139 629.663C344.84 629.502 353.906 626.188 357.42 622.985C372.003 609.686 386.863 595.604 401.192 582.077L444.791 540.835C460.006 526.622 476.477 512.687 489.993 496.948C492.844 493.627 494.523 484.566 494.441 480.235C494.359 475.271 492.743 470.442 489.799 466.368C487.11 462.723 479.604 455.553 476.157 452.179L450.346 427.274L354.23 336.311C353.582 334.558 340.28 322.1 338.729 321.927C337.439 319.258 316.931 300.482 313.133 296.864L240.52 226.719L217.706 204.739C201.183 188.787 185.858 174.953 190.46 149.983C193.447 133.78 207.396 122.581 218.789 111.553C230.358 100.245 242.007 89.0144 253.736 77.8605L292.732 40.2537C301.056 32.1244 309.202 23.6157 318.034 16.009C324.198 10.7002 331.63 8.37786 337.998 4.1043L338.418 3.81849ZM353.328 301.01L356.501 298.009C368.134 286.35 380.034 275.26 391.871 263.823C407.259 248.669 422.805 233.663 438.504 218.809C448.568 209.345 458.545 199.797 468.435 190.165C477.23 181.591 490.186 171.401 489.844 158.37C489.742 154.487 488.44 150.721 486.104 147.555C480.899 140.534 473.246 133.572 466.83 127.346L441.252 102.435L391.955 53.7208C386.014 47.9527 380.173 42.082 374.147 36.3864C366.467 29.1271 359.612 28.5554 349.271 28.974C348.651 29.0009 348.03 29.0433 347.412 29.1011C333.318 32.3199 327.968 40.534 318.242 50.0419L292.667 74.7163C276.116 90.4518 259.659 106.28 243.299 122.2C235.204 130.055 226.128 137.91 219.437 146.848C217.48 149.463 216.76 152.4 216.363 155.533C214.224 172.379 234.047 185.854 245.37 196.881L298.908 248.396L336.718 285.014C341.809 289.932 347.974 296.788 353.328 301.01Z" fill="url(#paint0_linear_613_490)"/>
<path d="M9.55786 332.203C19.7288 316.558 28.1206 310.074 41.6862 297.128L74.3675 265.707L105.402 235.682C116.432 224.82 128.124 211.009 142.93 205.121C152.942 201.225 170.36 200.443 180.217 205.018C197.427 213.006 213.668 231.932 227.035 244.971L282.71 298.595C286.857 302.582 291.304 306.76 295.423 310.726C309.769 324.537 319.01 329.689 338.726 321.93C340.276 322.104 353.579 334.562 354.227 336.315C347.121 343.738 335.774 347.971 325.526 348.269C306.728 348.815 291.444 340.82 278.314 328.485C268.985 319.721 259.847 310.932 250.64 302.061L203.512 256.581C194.78 248.125 185.503 237.736 175.938 230.439C169.98 225.894 156.856 224.999 150.302 228.646C142.178 232.9 135.025 240.769 128.578 247.127C120.704 254.935 112.789 262.704 104.832 270.432C83.2273 291.403 60.9342 311.766 39.8571 333.212C33.3854 339.798 30.5443 344.786 30.8829 353.871C31.3401 366.144 40.54 372.816 48.7316 380.776L71.3402 402.688C87.004 418.054 102.771 433.321 118.64 448.489C126.486 456.007 134.029 463.588 142.202 470.828C148.774 476.651 154.277 478.907 163.212 478.507C172.659 478.083 180.081 472.17 186.522 466.111C193.19 459.837 199.686 453.411 206.285 447.087L260.242 395.157C264.683 390.841 269.263 386.461 273.672 382.133C279.721 376.194 282.521 373.026 291.195 370.62C294.808 371.664 300.109 373.018 301.727 376.619C307.048 388.454 287.951 402.665 280.379 409.849L256.29 433.009C236.953 451.616 217.669 470.329 197.89 488.338C183.285 501.636 165.958 508.257 146.384 501.576C131.885 496.627 114.596 478.559 103.68 468.155L74.5318 440.51L44.1775 411.297C31.3742 399.037 18.4879 387.892 9.55786 372.568C-3.63632 356.829 -2.7251 347.942 9.55786 332.203Z" fill="url(#paint1_linear_613_490)" fill-opacity="0.6"/>
<defs>
<linearGradient id="paint0_linear_613_490" x1="355.316" y1="6.10352e-05" x2="355.316" y2="653.434" gradientUnits="userSpaceOnUse">
<stop stop-color="#A5C2D5"/>
<stop offset="1" stop-color="white"/>
</linearGradient>
<linearGradient id="paint1_linear_613_490" x1="177.113" y1="201.884" x2="177.113" y2="504.209" gradientUnits="userSpaceOnUse">
<stop stop-color="#A5C2D5"/>
<stop offset="1" stop-color="white"/>
</linearGradient>
</defs>
</svg>
