<svg preserveAspectRatio="none" width="100%" height="100%" overflow="visible" style="display: block;" viewBox="0 0 101.344 128.38" fill="none" xmlns="http://www.w3.org/2000/svg">
<g id="Frame 24" opacity="0.16">
<path id="Vector" d="M65.8286 0.750206C68.4104 -0.247895 69.725 -0.25224 71.7393 0.750206C71.7393 0.750206 70.8172 0.0884647 71.8075 0.799989C72.7979 1.51151 74.6799 2.19469 75.5891 3.06182C77.0594 4.46439 78.5561 5.9908 79.9943 7.43223L89.0044 16.4888C90.7438 18.2362 92.5033 19.9645 94.2825 21.6736C96.9117 24.206 99.2282 25.8315 99.8881 29.6417C100.924 35.6219 95.2161 40.1181 91.237 43.9486L83.6604 51.3201L76.8077 58.0195C75.3394 59.45 73.6338 61.2209 71.9971 62.4103C75.8907 65.8642 79.9302 70.0757 83.7607 73.6752C87.1704 76.8444 90.5275 80.067 93.8305 83.3414C96.9539 86.3796 101.135 89.5693 101.336 94.1641C101.466 97.1398 100.006 99.7142 98.0377 101.899C94.1378 105.898 89.8468 109.702 85.7963 113.58C83.3075 116.007 80.7871 118.403 78.2359 120.768C75.0976 123.732 72.4621 126.58 68.2212 127.923C67.8706 128.033 67.3082 128.218 67.008 128.379H64.6922C64.3909 128.202 62.7496 127.652 62.2656 127.448C60.7697 126.782 59.019 125.584 57.8409 124.469C54.1628 120.984 50.4451 117.501 46.7779 114.008L42.7133 110.13C41.6398 109.102 39.6742 107.526 39.5016 106.03C39.3863 105.032 40.9444 103.511 41.8491 103.627C43.4049 103.826 45.216 105.819 46.3054 106.84C47.9818 108.396 49.6304 109.98 51.2505 111.59C53.3261 113.629 55.5297 115.617 57.6271 117.686C59.5009 119.419 61.2513 121.377 63.3346 122.869C63.9579 123.316 65.4071 123.733 66.1633 123.709C67.0779 123.677 68.8412 123.026 69.5248 122.397C72.3613 119.784 75.2518 117.017 78.039 114.359L86.5197 106.257C89.4792 103.464 92.6831 100.727 95.312 97.6344C95.8668 96.9819 96.1933 95.2017 96.1774 94.3508C96.1614 93.3754 95.847 92.4268 95.2744 91.6264C94.7514 90.9102 93.2913 89.5016 92.6208 88.8387L87.6002 83.9456L68.9042 66.0744C68.7783 65.7299 66.1907 63.2823 65.8891 63.2482C65.6381 62.724 61.6491 59.0351 60.9103 58.3242L46.786 44.5429L42.3484 40.2247C39.1344 37.0906 36.1534 34.3727 37.0487 29.4668C37.6296 26.2835 40.343 24.0831 42.559 21.9165C44.8094 19.695 47.0752 17.4885 49.3567 15.2971L56.942 7.90856C58.5612 6.31141 60.1457 4.63972 61.8636 3.14525C63.0627 2.10224 64.5082 1.64598 65.7469 0.806359L65.8286 0.750206ZM68.7287 59.1388L69.3461 58.5493C71.6088 56.2586 73.9235 54.0797 76.2261 51.8328C79.2192 48.8556 82.243 45.9073 85.2968 42.9889C87.2543 41.1296 89.1951 39.2537 91.1188 37.3614C92.8296 35.6768 95.3497 33.6747 95.2832 31.1147C95.2633 30.3517 95.01 29.6119 94.5556 28.9899C93.5432 27.6104 92.0546 26.2425 90.8066 25.0193L85.8313 20.1253L76.2422 10.5544C75.0868 9.42116 73.9505 8.26776 72.7784 7.14876C71.2845 5.72255 69.9511 5.61022 67.9397 5.69246C67.819 5.69775 67.6984 5.70607 67.5781 5.71742C64.8366 6.34983 63.796 7.96362 61.9041 9.83163L56.9294 14.6794C53.71 17.7709 50.5089 20.8806 47.3266 24.0083C45.7521 25.5516 43.9866 27.0949 42.6851 28.8509C42.3044 29.3647 42.1644 29.9418 42.0871 30.5572C41.6711 33.867 45.527 36.5144 47.7294 38.6807L58.1433 48.8019L65.4978 55.996C66.4881 56.9623 67.6874 58.3094 68.7287 59.1388Z" fill="url(#paint0_linear_0_22)"/>
<path id="Vector_2" d="M1.86004 65.2664C3.83844 62.1927 5.47076 60.9187 8.10946 58.3753L14.4664 52.2021L20.5031 46.3032C22.6486 44.169 24.9228 41.4557 27.8028 40.2989C29.7503 39.5334 33.1383 39.3797 35.0557 40.2787C38.4032 41.8481 41.5623 45.5664 44.1625 48.1281L54.992 58.6634C55.7986 59.4467 56.6637 60.2677 57.465 61.0469C60.2553 63.7603 62.0529 64.7725 65.8879 63.2481C66.1896 63.2822 68.7771 65.7298 68.9031 66.0743C67.5209 67.5326 65.3137 68.3643 63.3203 68.4228C59.664 68.5302 56.6908 66.9593 54.1369 64.5358C52.3223 62.814 50.5449 61.0873 48.7539 59.3444L39.5869 50.409C37.8884 48.7478 36.0838 46.7066 34.2233 45.273C33.0645 44.38 30.5117 44.2042 29.2367 44.9208C27.6565 45.7566 26.2651 47.3025 25.0112 48.5517C23.4796 50.0858 21.94 51.6121 20.3922 53.1304C16.1898 57.2505 11.8535 61.2511 7.75367 65.4647C6.49484 66.7585 5.94222 67.7385 6.00806 69.5235C6.097 71.9346 7.88652 73.2456 9.4799 74.8093L13.8776 79.1145C16.9244 82.1333 19.9913 85.1328 23.078 88.1129C24.6042 89.5899 26.0714 91.0794 27.6612 92.5018C28.9395 93.6457 30.01 94.0891 31.7479 94.0104C33.5856 93.9272 35.0292 92.7653 36.2821 91.5749C37.5792 90.3425 38.8426 89.0799 40.1263 87.8374L50.6217 77.6349C51.4856 76.7868 52.3765 75.9264 53.2341 75.076C54.4106 73.9093 54.9553 73.2868 56.6426 72.8141C57.3452 73.0192 58.3763 73.2853 58.6911 73.9927C59.7262 76.318 56.0115 79.1099 54.5387 80.5213L49.853 85.0715C46.0917 88.7272 42.3406 92.4037 38.4934 95.942C35.6525 98.5546 32.2822 99.8554 28.4747 98.5428C25.6545 97.5705 22.2915 94.0206 20.1682 91.9767L14.4984 86.5452L8.59406 80.8059C6.10364 78.3972 3.59707 76.2075 1.86004 73.1968C-0.706412 70.1046 -0.529167 68.3587 1.86004 65.2664Z" fill="url(#paint1_linear_0_22)"/>
</g>
<defs>
<linearGradient id="paint0_linear_0_22" x1="69.1156" y1="8.64267e-06" x2="69.1156" y2="128.379" gradientUnits="userSpaceOnUse">
<stop stop-color="#558BAD"/>
<stop offset="1" stop-color="white"/>
</linearGradient>
<linearGradient id="paint1_linear_0_22" x1="34.452" y1="39.6629" x2="34.452" y2="99.0601" gradientUnits="userSpaceOnUse">
<stop stop-color="#558BAD"/>
<stop offset="1" stop-color="white"/>
</linearGradient>
</defs>
</svg>
