<svg preserveAspectRatio="none" width="100%" height="100%" overflow="visible" style="display: block;" viewBox="0 0 28 28" fill="none" xmlns="http://www.w3.org/2000/svg">
<g id="Icon">
<path id="Vector" d="M16.9167 4.66667H11.0833L8.16667 8.16667H4.66667C4.04783 8.16667 3.45434 8.4125 3.01675 8.85008C2.57917 9.28767 2.33333 9.88116 2.33333 10.5V21C2.33333 21.6188 2.57917 22.2123 3.01675 22.6499C3.45434 23.0875 4.04783 23.3333 4.66667 23.3333H23.3333C23.9522 23.3333 24.5457 23.0875 24.9832 22.6499C25.4208 22.2123 25.6667 21.6188 25.6667 21V10.5C25.6667 9.88116 25.4208 9.28767 24.9832 8.85008C24.5457 8.4125 23.9522 8.16667 23.3333 8.16667H19.8333L16.9167 4.66667Z" stroke="var(--stroke-0, #1A6DA2)" stroke-width="2.33333" stroke-linecap="round" stroke-linejoin="round"/>
<path id="Vector_2" d="M14 18.6667C15.933 18.6667 17.5 17.0997 17.5 15.1667C17.5 13.2337 15.933 11.6667 14 11.6667C12.067 11.6667 10.5 13.2337 10.5 15.1667C10.5 17.0997 12.067 18.6667 14 18.6667Z" stroke="var(--stroke-0, #1A6DA2)" stroke-width="2.33333" stroke-linecap="round" stroke-linejoin="round"/>
</g>
</svg>
