<svg preserveAspectRatio="none" width="100%" height="100%" overflow="visible" style="display: block;" viewBox="0 0 28 28" fill="none" xmlns="http://www.w3.org/2000/svg">
<g id="Icon">
<path id="Vector" d="M24.5 18.6667H19.8333C19.189 18.6667 18.6667 19.189 18.6667 19.8333V24.5C18.6667 25.1443 19.189 25.6667 19.8333 25.6667H24.5C25.1443 25.6667 25.6667 25.1443 25.6667 24.5V19.8333C25.6667 19.189 25.1443 18.6667 24.5 18.6667Z" stroke="var(--stroke-0, #1A6DA2)" stroke-width="2.33333" stroke-linecap="round" stroke-linejoin="round"/>
<path id="Vector_2" d="M8.16667 18.6667H3.5C2.85567 18.6667 2.33333 19.189 2.33333 19.8333V24.5C2.33333 25.1443 2.85567 25.6667 3.5 25.6667H8.16667C8.811 25.6667 9.33333 25.1443 9.33333 24.5V19.8333C9.33333 19.189 8.811 18.6667 8.16667 18.6667Z" stroke="var(--stroke-0, #1A6DA2)" stroke-width="2.33333" stroke-linecap="round" stroke-linejoin="round"/>
<path id="Vector_3" d="M16.3333 2.33333H11.6667C11.0223 2.33333 10.5 2.85567 10.5 3.5V8.16667C10.5 8.811 11.0223 9.33333 11.6667 9.33333H16.3333C16.9777 9.33333 17.5 8.811 17.5 8.16667V3.5C17.5 2.85567 16.9777 2.33333 16.3333 2.33333Z" stroke="var(--stroke-0, #1A6DA2)" stroke-width="2.33333" stroke-linecap="round" stroke-linejoin="round"/>
<path id="Vector_4" d="M5.83333 18.6667V15.1667C5.83333 14.8572 5.95625 14.5605 6.17504 14.3417C6.39383 14.1229 6.69058 14 7 14H21C21.3094 14 21.6062 14.1229 21.825 14.3417C22.0438 14.5605 22.1667 14.8572 22.1667 15.1667V18.6667" stroke="var(--stroke-0, #1A6DA2)" stroke-width="2.33333" stroke-linecap="round" stroke-linejoin="round"/>
<path id="Vector_5" d="M14 14V9.33333" stroke="var(--stroke-0, #1A6DA2)" stroke-width="2.33333" stroke-linecap="round" stroke-linejoin="round"/>
</g>
</svg>
