<svg preserveAspectRatio="none" width="100%" height="100%" overflow="visible" style="display: block;" viewBox="0 0 28 28" fill="none" xmlns="http://www.w3.org/2000/svg">
<g id="Icon">
<path id="Vector" d="M7 25.6667V4.66667C7 4.04783 7.24583 3.45434 7.68342 3.01675C8.121 2.57917 8.71449 2.33333 9.33333 2.33333H18.6667C19.2855 2.33333 19.879 2.57917 20.3166 3.01675C20.7542 3.45434 21 4.04783 21 4.66667V25.6667H7Z" stroke="var(--stroke-0, #1A6DA2)" stroke-width="2.33333" stroke-linecap="round" stroke-linejoin="round"/>
<path id="Vector_2" d="M7 14H4.66667C4.04783 14 3.45434 14.2458 3.01675 14.6834C2.57917 15.121 2.33333 15.7145 2.33333 16.3333V23.3333C2.33333 23.9522 2.57917 24.5457 3.01675 24.9832C3.45434 25.4208 4.04783 25.6667 4.66667 25.6667H7" stroke="var(--stroke-0, #1A6DA2)" stroke-width="2.33333" stroke-linecap="round" stroke-linejoin="round"/>
<path id="Vector_3" d="M21 10.5H23.3333C23.9522 10.5 24.5457 10.7458 24.9832 11.1834C25.4208 11.621 25.6667 12.2145 25.6667 12.8333V23.3333C25.6667 23.9522 25.4208 24.5457 24.9832 24.9832C24.5457 25.4208 23.9522 25.6667 23.3333 25.6667H21" stroke="var(--stroke-0, #1A6DA2)" stroke-width="2.33333" stroke-linecap="round" stroke-linejoin="round"/>
<path id="Vector_4" d="M11.6667 7H16.3333" stroke="var(--stroke-0, #1A6DA2)" stroke-width="2.33333" stroke-linecap="round" stroke-linejoin="round"/>
<path id="Vector_5" d="M11.6667 11.6667H16.3333" stroke="var(--stroke-0, #1A6DA2)" stroke-width="2.33333" stroke-linecap="round" stroke-linejoin="round"/>
<path id="Vector_6" d="M11.6667 16.3333H16.3333" stroke="var(--stroke-0, #1A6DA2)" stroke-width="2.33333" stroke-linecap="round" stroke-linejoin="round"/>
<path id="Vector_7" d="M11.6667 21H16.3333" stroke="var(--stroke-0, #1A6DA2)" stroke-width="2.33333" stroke-linecap="round" stroke-linejoin="round"/>
</g>
</svg>
