<svg preserveAspectRatio="none" width="100%" height="100%" overflow="visible" style="display: block;" viewBox="0 0 28 28" fill="none" xmlns="http://www.w3.org/2000/svg">
<g id="Icon">
<path id="Vector" d="M10.5 14H10.5117" stroke="var(--stroke-0, #1A6DA2)" stroke-width="2.33333" stroke-linecap="round" stroke-linejoin="round"/>
<path id="Vector_2" d="M17.5 14H17.5117" stroke="var(--stroke-0, #1A6DA2)" stroke-width="2.33333" stroke-linecap="round" stroke-linejoin="round"/>
<path id="Vector_3" d="M11.6667 18.6667C12.25 19.0167 13.0667 19.25 14 19.25C14.9333 19.25 15.75 19.0167 16.3333 18.6667" stroke="var(--stroke-0, #1A6DA2)" stroke-width="2.33333" stroke-linecap="round" stroke-linejoin="round"/>
<path id="Vector_4" d="M22.1667 7.35C23.2236 8.67495 23.9442 10.2361 24.2667 11.9C24.6612 12.0911 24.9939 12.3894 25.2267 12.7608C25.4595 13.1322 25.5829 13.5617 25.5829 14C25.5829 14.4383 25.4595 14.8678 25.2267 15.2392C24.9939 15.6106 24.6612 15.9089 24.2667 16.1C23.763 18.4491 22.469 20.5544 20.6006 22.0646C18.7322 23.5749 16.4024 24.3987 14 24.3987C11.5976 24.3987 9.26776 23.5749 7.39937 22.0646C5.53097 20.5544 4.23699 18.4491 3.73333 16.1C3.33883 15.9089 3.00613 15.6106 2.77334 15.2392C2.54055 14.8678 2.41708 14.4383 2.41708 14C2.41708 13.5617 2.54055 13.1322 2.77334 12.7608C3.00613 12.3894 3.33883 12.0911 3.73333 11.9C4.21664 9.53225 5.50188 7.40369 7.3722 5.87343C9.24252 4.34316 11.5834 3.50488 14 3.5C16.3333 3.5 18.0833 4.78333 18.0833 6.41667C18.0833 8.05 17.0333 9.33333 15.75 9.33333C14.8167 9.33333 14 8.86667 14 8.16667" stroke="var(--stroke-0, #1A6DA2)" stroke-width="2.33333" stroke-linecap="round" stroke-linejoin="round"/>
</g>
</svg>
