<svg preserveAspectRatio="none" width="100%" height="100%" overflow="visible" style="display: block;" viewBox="0 0 28 28" fill="none" xmlns="http://www.w3.org/2000/svg">
<g id="Icon">
<path id="Vector" d="M5.71667 22.2833C1.16667 17.7333 1.16667 10.2667 5.71667 5.71667" stroke="var(--stroke-0, #1A6DA2)" stroke-width="2.33333" stroke-linecap="round" stroke-linejoin="round"/>
<path id="Vector_2" d="M9.1 18.9C6.41667 16.2167 6.41667 11.7833 9.1 8.98333" stroke="var(--stroke-0, #1A6DA2)" stroke-width="2.33333" stroke-linecap="round" stroke-linejoin="round"/>
<path id="Vector_3" d="M14 16.3333C15.2887 16.3333 16.3333 15.2887 16.3333 14C16.3333 12.7113 15.2887 11.6667 14 11.6667C12.7113 11.6667 11.6667 12.7113 11.6667 14C11.6667 15.2887 12.7113 16.3333 14 16.3333Z" stroke="var(--stroke-0, #1A6DA2)" stroke-width="2.33333" stroke-linecap="round" stroke-linejoin="round"/>
<path id="Vector_4" d="M18.9 9.1C21.5833 11.7833 21.5833 16.2167 18.9 19.0167" stroke="var(--stroke-0, #1A6DA2)" stroke-width="2.33333" stroke-linecap="round" stroke-linejoin="round"/>
<path id="Vector_5" d="M22.2833 5.71667C26.8333 10.2667 26.8333 17.6167 22.2833 22.1667" stroke="var(--stroke-0, #1A6DA2)" stroke-width="2.33333" stroke-linecap="round" stroke-linejoin="round"/>
</g>
</svg>
