<svg preserveAspectRatio="none" width="100%" height="100%" overflow="visible" style="display: block;" viewBox="0 0 28 28" fill="none" xmlns="http://www.w3.org/2000/svg">
<g id="Icon">
<path id="Vector" d="M25.3517 21L16.0183 4.66667C15.8148 4.30757 15.5197 4.00889 15.1631 3.80108C14.8065 3.59328 14.4011 3.48379 13.9883 3.48379C13.5756 3.48379 13.1702 3.59328 12.8136 3.80108C12.457 4.00889 12.1618 4.30757 11.9583 4.66667L2.625 21C2.4193 21.3563 2.31143 21.7606 2.31234 22.1719C2.31326 22.5833 2.42291 22.9871 2.63019 23.3425C2.83747 23.6978 3.13501 23.992 3.49264 24.1953C3.85028 24.3986 4.25531 24.5037 4.66667 24.5H23.3333C23.7427 24.4996 24.1448 24.3915 24.4992 24.1865C24.8535 23.9815 25.1478 23.6869 25.3523 23.3323C25.5568 22.9777 25.6644 22.5755 25.6643 22.1661C25.6642 21.7567 25.5564 21.3545 25.3517 21Z" stroke="var(--stroke-0, #1A6DA2)" stroke-width="2.33333" stroke-linecap="round" stroke-linejoin="round"/>
<path id="Vector_2" d="M14 10.5V15.1667" stroke="var(--stroke-0, #1A6DA2)" stroke-width="2.33333" stroke-linecap="round" stroke-linejoin="round"/>
<path id="Vector_3" d="M14 19.8333H14.0117" stroke="var(--stroke-0, #1A6DA2)" stroke-width="2.33333" stroke-linecap="round" stroke-linejoin="round"/>
</g>
</svg>
