<svg preserveAspectRatio="none" width="100%" height="100%" overflow="visible" style="display: block;" viewBox="0 0 28 28" fill="none" xmlns="http://www.w3.org/2000/svg">
<g id="Icon">
<path id="Vector" d="M12.8333 5.48567C12.8331 5.32317 12.7847 5.16437 12.6943 5.02933C12.6039 4.89429 12.4756 4.78905 12.3254 4.7269C12.1753 4.66474 12.0101 4.64846 11.8507 4.6801C11.6913 4.71173 11.5449 4.78988 11.4298 4.90467L7.48183 8.8515C7.32947 9.00477 7.14821 9.12629 6.94854 9.20899C6.74888 9.2917 6.53478 9.33397 6.31867 9.33333H3.5C3.19058 9.33333 2.89383 9.45625 2.67504 9.67504C2.45625 9.89384 2.33333 10.1906 2.33333 10.5V17.5C2.33333 17.8094 2.45625 18.1062 2.67504 18.325C2.89383 18.5437 3.19058 18.6667 3.5 18.6667H6.31867C6.53478 18.666 6.74888 18.7083 6.94854 18.791C7.14821 18.8737 7.32947 18.9952 7.48183 19.1485L11.4287 23.0965C11.5437 23.2118 11.6904 23.2903 11.8501 23.3221C12.0098 23.3539 12.1753 23.3377 12.3257 23.2753C12.4762 23.213 12.6047 23.1074 12.6951 22.9719C12.7854 22.8364 12.8336 22.6772 12.8333 22.5143V5.48567Z" stroke="var(--stroke-0, #1A6DA2)" stroke-width="2.33333" stroke-linecap="round" stroke-linejoin="round"/>
<path id="Vector_2" d="M18.6667 10.5C19.424 11.5097 19.8333 12.7378 19.8333 14C19.8333 15.2622 19.424 16.4903 18.6667 17.5" stroke="var(--stroke-0, #1A6DA2)" stroke-width="2.33333" stroke-linecap="round" stroke-linejoin="round"/>
<path id="Vector_3" d="M22.5913 21.4247C23.5664 20.4497 24.3398 19.2921 24.8675 18.0182C25.3952 16.7443 25.6668 15.3789 25.6668 14C25.6668 12.6211 25.3952 11.2557 24.8675 9.98179C24.3398 8.70787 23.5664 7.55035 22.5913 6.57533" stroke="var(--stroke-0, #1A6DA2)" stroke-width="2.33333" stroke-linecap="round" stroke-linejoin="round"/>
</g>
</svg>
