<svg preserveAspectRatio="none" width="100%" height="100%" overflow="visible" style="display: block;" viewBox="0 0 28 28" fill="none" xmlns="http://www.w3.org/2000/svg">
<g id="cat.icon">
<path id="Vector" d="M11.6667 11.6667V5.83333C11.6667 5.52391 11.7896 5.22717 12.0084 5.00838C12.2272 4.78958 12.5239 4.66667 12.8333 4.66667H15.1667C15.4761 4.66667 15.7728 4.78958 15.9916 5.00838C16.2104 5.22717 16.3333 5.52391 16.3333 5.83333V11.6667" stroke="var(--stroke-0, white)" stroke-width="2.33333" stroke-linecap="round" stroke-linejoin="round"/>
<path id="Vector_2" d="M16.3333 7C18.1898 7 19.9703 7.7375 21.2831 9.05025C22.5958 10.363 23.3333 12.1435 23.3333 14V17.5" stroke="var(--stroke-0, white)" stroke-width="2.33333" stroke-linecap="round" stroke-linejoin="round"/>
<path id="Vector_3" d="M4.66667 17.5V14C4.66667 12.1435 5.40417 10.363 6.71692 9.05025C8.02967 7.7375 9.81015 7 11.6667 7" stroke="var(--stroke-0, white)" stroke-width="2.33333" stroke-linecap="round" stroke-linejoin="round"/>
<path id="Vector_4" d="M24.5 17.5H3.5C2.85567 17.5 2.33333 18.0223 2.33333 18.6667V21C2.33333 21.6443 2.85567 22.1667 3.5 22.1667H24.5C25.1443 22.1667 25.6667 21.6443 25.6667 21V18.6667C25.6667 18.0223 25.1443 17.5 24.5 17.5Z" stroke="var(--stroke-0, white)" stroke-width="2.33333" stroke-linecap="round" stroke-linejoin="round"/>
</g>
</svg>
