<svg preserveAspectRatio="none" width="100%" height="100%" overflow="visible" style="display: block;" viewBox="0 0 28 28" fill="none" xmlns="http://www.w3.org/2000/svg">
<g id="cat.icon">
<path id="Vector" d="M9.91667 16.9167C10.6902 16.9167 11.4321 16.6094 11.9791 16.0624C12.526 15.5154 12.8333 14.7735 12.8333 14C12.8333 12.39 12.25 11.6667 11.6667 10.5C10.416 7.99983 11.4053 5.77033 14 3.5C14.5833 6.41667 16.3333 9.21667 18.6667 11.0833C21 12.95 22.1667 15.1667 22.1667 17.5C22.1667 18.5725 21.9554 19.6344 21.545 20.6252C21.1346 21.6161 20.533 22.5164 19.7747 23.2747C19.0164 24.033 18.1161 24.6346 17.1252 25.045C16.1344 25.4554 15.0725 25.6667 14 25.6667C12.9275 25.6667 11.8656 25.4554 10.8748 25.045C9.88393 24.6346 8.98364 24.033 8.22529 23.2747C7.46695 22.5164 6.8654 21.6161 6.45498 20.6252C6.04457 19.6344 5.83333 18.5725 5.83333 17.5C5.83333 16.1548 6.3385 14.8237 7 14C7 14.7735 7.30729 15.5154 7.85427 16.0624C8.40125 16.6094 9.14312 16.9167 9.91667 16.9167Z" stroke="var(--stroke-0, white)" stroke-width="2.33333" stroke-linecap="round" stroke-linejoin="round"/>
</g>
</svg>
