<svg preserveAspectRatio="none" width="100%" height="100%" overflow="visible" style="display: block;" viewBox="0 0 28 28" fill="none" xmlns="http://www.w3.org/2000/svg">
<g id="cat.icon">
<path id="Vector" d="M21 4.66667H7C5.71134 4.66667 4.66667 5.71134 4.66667 7V21C4.66667 22.2887 5.71134 23.3333 7 23.3333H21C22.2887 23.3333 23.3333 22.2887 23.3333 21V7C23.3333 5.71134 22.2887 4.66667 21 4.66667Z" stroke="var(--stroke-0, white)" stroke-width="2.33333" stroke-linecap="round" stroke-linejoin="round"/>
<path id="Vector_2" d="M16.3333 10.5H11.6667C11.0223 10.5 10.5 11.0223 10.5 11.6667V16.3333C10.5 16.9777 11.0223 17.5 11.6667 17.5H16.3333C16.9777 17.5 17.5 16.9777 17.5 16.3333V11.6667C17.5 11.0223 16.9777 10.5 16.3333 10.5Z" stroke="var(--stroke-0, white)" stroke-width="2.33333" stroke-linecap="round" stroke-linejoin="round"/>
<path id="Vector_3" d="M17.5 2.33333V4.66667" stroke="var(--stroke-0, white)" stroke-width="2.33333" stroke-linecap="round" stroke-linejoin="round"/>
<path id="Vector_4" d="M17.5 23.3333V25.6667" stroke="var(--stroke-0, white)" stroke-width="2.33333" stroke-linecap="round" stroke-linejoin="round"/>
<path id="Vector_5" d="M2.33333 17.5H4.66667" stroke="var(--stroke-0, white)" stroke-width="2.33333" stroke-linecap="round" stroke-linejoin="round"/>
<path id="Vector_6" d="M2.33333 10.5H4.66667" stroke="var(--stroke-0, white)" stroke-width="2.33333" stroke-linecap="round" stroke-linejoin="round"/>
<path id="Vector_7" d="M23.3333 17.5H25.6667" stroke="var(--stroke-0, white)" stroke-width="2.33333" stroke-linecap="round" stroke-linejoin="round"/>
<path id="Vector_8" d="M23.3333 10.5H25.6667" stroke="var(--stroke-0, white)" stroke-width="2.33333" stroke-linecap="round" stroke-linejoin="round"/>
<path id="Vector_9" d="M10.5 2.33333V4.66667" stroke="var(--stroke-0, white)" stroke-width="2.33333" stroke-linecap="round" stroke-linejoin="round"/>
<path id="Vector_10" d="M10.5 23.3333V25.6667" stroke="var(--stroke-0, white)" stroke-width="2.33333" stroke-linecap="round" stroke-linejoin="round"/>
</g>
</svg>
