<svg width="15" height="13" viewBox="0 0 15 13" fill="none" xmlns="http://www.w3.org/2000/svg">
<path d="M-8.58307e-06 1.05997L1.06099 -2.86102e-05L6.83999 5.77697C6.93315 5.86954 7.00707 5.97961 7.05752 6.10086C7.10797 6.22212 7.13394 6.35214 7.13394 6.48347C7.13394 6.6148 7.10797 6.74483 7.05752 6.86608C7.00707 6.98733 6.93315 7.0974 6.83999 7.18997L1.06099 12.97L0.000991344 11.91L5.42499 6.48497L-8.58307e-06 1.05997Z" fill="#F7FAFC"/>
<path d="M7.13396 1.05997L8.19496 -2.86102e-05L13.974 5.77697C14.0671 5.86954 14.141 5.97961 14.1915 6.10086C14.2419 6.22212 14.2679 6.35214 14.2679 6.48347C14.2679 6.6148 14.2419 6.74483 14.1915 6.86608C14.141 6.98733 14.0671 7.0974 13.974 7.18997L8.19496 12.97L7.13496 11.91L12.559 6.48497L7.13396 1.05997Z" fill="#F7FAFC"/>
</svg>
