<svg width="24" height="30" viewBox="0 0 24 30" fill="none" xmlns="http://www.w3.org/2000/svg">
<path d="M11 20.4126L13 22.5776C13.197 22.7909 13.4308 22.96 13.6882 23.0754C13.9456 23.1908 14.2214 23.2502 14.5 23.2502C14.7786 23.2502 15.0544 23.1908 15.3118 23.0754C15.5692 22.96 15.803 22.7909 16 22.5776C16.197 22.3644 16.3532 22.1112 16.4598 21.8326C16.5665 21.554 16.6213 21.2554 16.6213 20.9539C16.6213 20.6523 16.5665 20.3537 16.4598 20.0751C16.3532 19.7965 16.197 19.5433 16 19.3301" stroke="#558BAD" stroke-width="1.08252" stroke-linecap="round" stroke-linejoin="round"/>
<path d="M14 17.165L16.5 19.8713C16.8978 20.302 17.4374 20.5439 18 20.5439C18.5626 20.5439 19.1022 20.302 19.5 19.8713C19.8978 19.4407 20.1213 18.8566 20.1213 18.2476C20.1213 17.6385 19.8978 17.0544 19.5 16.6238L15.62 12.4236C15.0575 11.8154 14.295 11.4738 13.5 11.4738C12.705 11.4738 11.9425 11.8154 11.38 12.4236L10.5 13.3762C10.1022 13.8069 9.56262 14.0488 9.00001 14.0488C8.4374 14.0488 7.89784 13.8069 7.50001 13.3762C7.10219 12.9456 6.87869 12.3615 6.87869 11.7524C6.87869 11.1434 7.10219 10.5593 7.50001 10.1287L10.31 7.08678C11.2223 6.10184 12.4119 5.47442 13.6907 5.30384C14.9694 5.13326 16.2642 5.42926 17.37 6.14499L17.84 6.44809C18.2658 6.72628 18.7721 6.82277 19.26 6.71872L21 6.33984" stroke="#558BAD" stroke-width="1.08252" stroke-linecap="round" stroke-linejoin="round"/>
<path d="M21 5.25732L22 17.165H20" stroke="#558BAD" stroke-width="1.08252" stroke-linecap="round" stroke-linejoin="round"/>
<path d="M3 5.25732L2 17.165L8.5 24.2014C8.89782 24.6321 9.43739 24.874 10 24.874C10.5626 24.874 11.1022 24.6321 11.5 24.2014C11.8978 23.7708 12.1213 23.1867 12.1213 22.5776C12.1213 21.9686 11.8978 21.3845 11.5 20.9539" stroke="#558BAD" stroke-width="1.08252" stroke-linecap="round" stroke-linejoin="round"/>
<path d="M3 6.33984H11" stroke="#558BAD" stroke-width="1.08252" stroke-linecap="round" stroke-linejoin="round"/>
</svg>
