<svg preserveAspectRatio="none" width="100%" height="100%" overflow="visible" style="display: block;" viewBox="0 0 20 20" fill="none" xmlns="http://www.w3.org/2000/svg">
<g id="Icon">
<path id="Vector" d="M10 18.1818C14.5187 18.1818 18.1818 14.5187 18.1818 10C18.1818 5.48131 14.5187 1.81818 10 1.81818C5.48131 1.81818 1.81818 5.48131 1.81818 10C1.81818 14.5187 5.48131 18.1818 10 18.1818Z" stroke="var(--stroke-0, #263F4E)" stroke-width="1.63636" stroke-linecap="round" stroke-linejoin="round"/>
<path id="Vector_2" d="M8.18182 7.72727C8.31784 7.30979 8.60034 6.95563 8.97714 6.73021C9.35394 6.50479 9.79959 6.42335 10.2318 6.50092C10.6639 6.57849 11.0535 6.80983 11.3283 7.15222C11.6032 7.49461 11.7449 7.92491 11.7273 8.36364C11.7273 9.63636 9.90909 10.1818 9.90909 10.1818" stroke="var(--stroke-0, #263F4E)" stroke-width="1.63636" stroke-linecap="round" stroke-linejoin="round"/>
<path id="Vector_3" d="M10 14.5455C10.251 14.5455 10.4545 14.3419 10.4545 14.0909C10.4545 13.8399 10.251 13.6364 10 13.6364C9.74896 13.6364 9.54545 13.8399 9.54545 14.0909C9.54545 14.3419 9.74896 14.5455 10 14.5455Z" fill="var(--fill-0, #263F4E)"/>
</g>
</svg>
