<svg preserveAspectRatio="none" width="100%" height="100%" overflow="visible" style="display: block;" viewBox="0 0 24 24" fill="none" xmlns="http://www.w3.org/2000/svg">
<g id="streamline-flex:dashboard-3" clip-path="url(#clip0_0_90)">
<path id="Vector" d="M1.52743 10.9749C1.63371 12.4269 2.42743 13.596 3.41314 13.7571C4.14857 13.8771 4.90114 13.98 5.66743 13.98C6.43543 13.98 7.188 13.8771 7.92171 13.7571C8.90914 13.596 9.70457 12.4269 9.80743 10.9749C9.89663 9.87875 9.94524 8.77971 9.95314 7.68C9.95314 6.55886 9.88629 5.45657 9.80914 4.38514C9.70286 2.93314 8.90914 1.76571 7.92 1.60286C7.176 1.46653 6.422 1.39199 5.66571 1.38C4.89943 1.38 4.14686 1.48286 3.41314 1.60286C2.42571 1.76571 1.63029 2.93314 1.52743 4.38514C1.43823 5.48125 1.38962 6.58029 1.38171 7.68C1.38171 8.80286 1.45029 9.90343 1.52743 10.9749ZM22.5086 13.0937C22.404 11.6434 21.6086 10.476 20.6177 10.3149C19.8726 10.1783 19.1174 10.1038 18.36 10.092C17.5903 10.092 16.836 10.1949 16.1006 10.3149C15.1114 10.476 14.316 11.6434 14.2097 13.0937C14.1211 14.1893 14.0731 15.2877 14.0657 16.3869C14.0657 17.508 14.1326 18.6086 14.2097 19.68C14.316 21.132 15.1114 22.2994 16.1006 22.4606C16.8377 22.5806 17.592 22.6834 18.36 22.6834C19.128 22.6834 19.884 22.5806 20.6177 22.4606C21.6086 22.2994 22.404 21.132 22.5103 19.68C22.5874 18.6086 22.6543 17.508 22.6543 16.3886C22.6543 15.2657 22.5857 14.1651 22.5086 13.0937ZM1.52743 21.5983C1.63371 22.1229 2.42743 22.5446 3.41314 22.6029C4.1636 22.6522 4.91536 22.6791 5.66743 22.6834C6.41949 22.6791 7.17126 22.6522 7.92171 22.6029C8.90914 22.5446 9.70457 22.1229 9.80743 21.5983C9.88629 21.2109 9.95314 20.8114 9.95314 20.4069C9.94396 20.006 9.89573 19.6069 9.80914 19.2154C9.70286 18.6909 8.90914 18.2691 7.92171 18.2109C7.17126 18.1615 6.41949 18.1347 5.66743 18.1303C4.91594 18.1347 4.16474 18.1616 3.41486 18.2109C2.42743 18.2691 1.632 18.6909 1.52914 19.2154C1.44087 19.6067 1.39205 20.0058 1.38343 20.4069C1.38343 20.8131 1.45029 21.2109 1.52743 21.5983ZM22.5086 2.46514C22.404 1.94057 21.6086 1.51886 20.6177 1.46057C19.8661 1.41118 19.1132 1.38431 18.36 1.38C17.5903 1.38 16.836 1.41771 16.1006 1.46057C15.1114 1.51886 14.316 1.94057 14.2097 2.46514C14.122 2.85648 14.0738 3.25561 14.0657 3.65657C14.0657 4.06114 14.1326 4.46057 14.2097 4.848C14.316 5.37257 15.1114 5.79429 16.1006 5.85257C16.8377 5.89543 17.592 5.93314 18.36 5.93314C19.128 5.93314 19.884 5.89543 20.6177 5.85257C21.6086 5.79429 22.404 5.37257 22.5103 4.84629C22.5968 4.45532 22.645 4.05688 22.6543 3.65657C22.6451 3.25569 22.5952 2.85666 22.5086 2.46514Z" stroke="var(--stroke-0, #1A6DA2)" stroke-linecap="round" stroke-linejoin="round"/>
</g>
<defs>
<clipPath id="clip0_0_90">
<rect width="24" height="24" fill="white"/>
</clipPath>
</defs>
</svg>
