<svg preserveAspectRatio="none" width="100%" height="100%" overflow="visible" style="display: block;" viewBox="0 0 24 24" fill="none" xmlns="http://www.w3.org/2000/svg">
<g id="fluent:handshake-20-regular">
<path id="Vector" d="M12.2928 3.6144C12.2031 3.61424 12.1144 3.63421 12.0334 3.67284C11.9525 3.71146 11.8812 3.76777 11.8248 3.8376L11.718 3.9168C9.648 3.276 7.2864 3.7464 5.6424 5.3304C4.95376 5.98353 4.44149 6.8002 4.15321 7.70447C3.86494 8.60873 3.81003 9.57122 3.9936 10.5024L3.9336 10.5576L2.9988 11.4576C2.81797 11.6291 2.67396 11.8357 2.57556 12.0647C2.47715 12.2937 2.42639 12.5403 2.42639 12.7896C2.42639 13.0389 2.47715 13.2855 2.57556 13.5145C2.67396 13.7435 2.81797 13.9501 2.9988 14.1216C3.4764 14.5824 4.1388 14.7552 4.7544 14.64C4.83 14.9868 5.0064 15.3168 5.286 15.5856C5.6544 15.9408 6.1332 16.1244 6.6156 16.1376C6.6288 16.602 6.8196 17.0628 7.188 17.418C7.5564 17.7732 8.0364 17.958 8.5188 17.97C8.5308 18.4344 8.7228 18.8964 9.0912 19.2516C9.44389 19.5863 9.9059 19.7819 10.3917 19.8022C10.8775 19.8225 11.3542 19.6661 11.7336 19.362L12.258 19.866C13.026 20.6064 14.2716 20.6064 15.0396 19.866C15.4068 19.5132 15.5976 19.0548 15.6144 18.5916C16.0944 18.5772 16.5684 18.3936 16.9344 18.0408C17.3004 17.688 17.4924 17.2284 17.5068 16.7652C17.9944 16.7475 18.4585 16.5515 18.8112 16.2144C19.1028 15.9348 19.2828 15.588 19.3524 15.2256C19.6613 15.2797 19.9785 15.2605 20.2787 15.1696C20.5788 15.0788 20.8534 14.9187 21.0804 14.7024C21.2614 14.5308 21.4056 14.3242 21.5041 14.0951C21.6026 13.866 21.6534 13.6192 21.6534 13.3698C21.6534 13.1204 21.6026 12.8736 21.5041 12.6445C21.4056 12.4154 21.2614 12.2088 21.0804 12.0372L20.2164 11.2056L20.3928 10.5456C20.7484 9.1962 20.5677 7.76155 19.8888 6.5424C18.8856 4.7352 16.9392 3.6192 14.8344 3.6192H13.3584L13.1676 3.6144H12.2928ZM15.2364 8.0736L18.1224 10.854L18.126 10.8564L20.2152 12.87C20.2831 12.9344 20.3371 13.0119 20.374 13.0978C20.411 13.1837 20.43 13.2763 20.43 13.3698C20.43 13.4633 20.411 13.5559 20.374 13.6418C20.3371 13.7277 20.2831 13.8052 20.2152 13.8696C20.0749 14.0021 19.8892 14.0759 19.6962 14.0759C19.5032 14.0759 19.3175 14.0021 19.1772 13.8696L17.592 12.3432C17.4758 12.2317 17.321 12.1695 17.16 12.1695C16.999 12.1695 16.8442 12.2317 16.728 12.3432L16.7112 12.3576C16.6549 12.4114 16.6101 12.476 16.5796 12.5476C16.549 12.6191 16.5332 12.6962 16.5332 12.774C16.5332 12.8518 16.549 12.9289 16.5796 13.0004C16.6101 13.072 16.6549 13.1366 16.7112 13.1904L17.9472 14.3808C18.2352 14.6568 18.2352 15.1056 17.9472 15.3828C17.8197 15.5036 17.6542 15.5762 17.4791 15.5883C17.3039 15.6003 17.13 15.551 16.9872 15.4488C16.868 15.3627 16.7225 15.3211 16.5758 15.3312C16.4292 15.3413 16.2907 15.4024 16.1844 15.504C16.0806 15.6033 16.0179 15.738 16.0087 15.8814C15.9996 16.0248 16.0448 16.1664 16.1352 16.278C16.2429 16.4129 16.296 16.5834 16.284 16.7556C16.272 16.9279 16.1958 17.0893 16.0704 17.208C15.9411 17.3306 15.7727 17.4036 15.5949 17.4141C15.4171 17.4247 15.2412 17.3721 15.0984 17.2656C14.9798 17.1767 14.8337 17.1325 14.6857 17.1408C14.5377 17.1491 14.3974 17.2095 14.2896 17.3112C14.1844 17.4103 14.1206 17.5456 14.111 17.6899C14.1015 17.8341 14.1468 17.9766 14.238 18.0888C14.3488 18.2253 14.4038 18.3987 14.392 18.5741C14.3802 18.7495 14.3025 18.914 14.1744 19.0344C14.0324 19.1692 13.844 19.2443 13.6482 19.2443C13.4524 19.2443 13.264 19.1692 13.122 19.0344L12.6024 18.534L12.792 18.3516C12.973 18.18 13.1172 17.9734 13.2157 17.7443C13.3142 17.5152 13.365 17.2684 13.365 17.019C13.365 16.7696 13.3142 16.5228 13.2157 16.2937C13.1172 16.0646 12.973 15.858 12.792 15.6864C12.4331 15.3431 11.9589 15.1462 11.4624 15.1344C11.4476 14.6485 11.2419 14.1881 10.89 13.8528C10.5306 13.5096 10.056 13.3132 9.5592 13.302C9.54438 12.8161 9.33872 12.3557 8.9868 12.0204C8.75626 11.801 8.47678 11.6396 8.17149 11.5497C7.8662 11.4597 7.54388 11.4438 7.2312 11.5032C7.15189 11.1422 6.96682 10.813 6.6996 10.5576C6.4948 10.3617 6.25056 10.2118 5.9832 10.1179C5.71584 10.0239 5.43151 9.9881 5.1492 10.0128C5.05486 9.30963 5.12857 8.59411 5.36428 7.92494C5.59999 7.25577 5.99099 6.65201 6.5052 6.1632C7.02492 5.66656 7.6481 5.29108 8.33005 5.06369C9.012 4.83631 9.73582 4.76265 10.4496 4.848L8.7036 6.132C8.4802 6.29432 8.29202 6.50024 8.15042 6.73731C8.00882 6.97439 7.91673 7.2377 7.87972 7.51135C7.84271 7.785 7.86154 8.06332 7.93508 8.32949C8.00863 8.59566 8.13535 8.84417 8.3076 9.06C8.65614 9.49655 9.15947 9.78202 9.71302 9.85711C10.2666 9.9322 10.8278 9.79112 11.28 9.4632L13.1712 8.0748L15.2364 8.0736ZM9.414 7.098L12.5244 4.8144H13.1676C13.2264 4.81384 13.2853 4.81544 13.344 4.8192H14.8344C16.5192 4.8192 18.0564 5.7132 18.84 7.1256C19.3704 8.0808 19.5096 9.1908 19.2324 10.2384L19.2288 10.2504L15.9168 7.05C15.8046 6.9374 15.6522 6.87395 15.4932 6.8736H12.9732C12.8458 6.87384 12.7219 6.91461 12.6192 6.99L10.5696 8.4948C10.3682 8.63868 10.1194 8.70029 9.87416 8.66706C9.62887 8.63384 9.40549 8.50828 9.2496 8.316C9.17703 8.22661 9.12353 8.12331 9.09239 8.01246C9.06125 7.90162 9.05313 7.78557 9.06853 7.67147C9.08394 7.55736 9.12253 7.44762 9.18194 7.349C9.24136 7.25037 9.32033 7.16495 9.414 7.098ZM9.9444 17.43L9.9564 17.418L10.89 16.518L10.9008 16.5084C11.0419 16.3805 11.2261 16.3105 11.4165 16.3125C11.607 16.3145 11.7896 16.3883 11.928 16.5192C11.9959 16.5836 12.0499 16.6611 12.0868 16.747C12.1238 16.8329 12.1428 16.9255 12.1428 17.019C12.1428 17.1125 12.1238 17.2051 12.0868 17.291C12.0499 17.3769 11.9959 17.4544 11.928 17.5188L10.9932 18.4188C10.8529 18.5513 10.6672 18.6251 10.4742 18.6251C10.2812 18.6251 10.0955 18.5513 9.9552 18.4188C9.88822 18.3554 9.83466 18.2792 9.79769 18.1947C9.76072 18.1102 9.7411 18.0192 9.73998 17.9269C9.73886 17.8347 9.75627 17.7432 9.79118 17.6579C9.82609 17.5725 9.87898 17.495 9.9444 17.43ZM10.0356 15.6756L10.0236 15.6864L9.09 16.5864L9.078 16.5972C8.93682 16.7246 8.75281 16.7941 8.56265 16.7919C8.3725 16.7897 8.19016 16.7159 8.052 16.5852C7.98489 16.5215 7.9313 16.445 7.89442 16.3601C7.85754 16.2753 7.83813 16.1839 7.83735 16.0914C7.83656 15.9989 7.85442 15.9072 7.88986 15.8217C7.92529 15.7362 7.97758 15.6588 8.0436 15.594L8.052 15.5856L8.9856 14.6856L8.994 14.6772C9.13493 14.5483 9.31945 14.4775 9.51045 14.479C9.70146 14.4806 9.88479 14.5544 10.0236 14.6856C10.0908 14.749 10.1445 14.8253 10.1816 14.9099C10.2186 14.9945 10.2383 15.0857 10.2394 15.1781C10.2406 15.2704 10.2231 15.3621 10.1881 15.4475C10.1531 15.533 10.1012 15.6106 10.0356 15.6756ZM8.1216 13.8528L7.1868 14.7528L7.1784 14.7612C7.03747 14.8901 6.85295 14.9609 6.66195 14.9594C6.47095 14.9578 6.28761 14.884 6.1488 14.7528C6.08093 14.6884 6.02689 14.6109 5.98995 14.525C5.95302 14.4391 5.93397 14.3465 5.93397 14.253C5.93397 14.1595 5.95302 14.0669 5.98995 13.981C6.02689 13.8951 6.08093 13.8176 6.1488 13.7532L7.0824 12.8532C7.22279 12.7204 7.40873 12.6463 7.602 12.6463C7.79528 12.6463 7.98121 12.7204 8.1216 12.8532C8.18889 12.9169 8.24264 12.9935 8.27963 13.0785C8.31662 13.1634 8.33609 13.255 8.33688 13.3476C8.33766 13.4403 8.31974 13.5321 8.2842 13.6177C8.24865 13.7033 8.1962 13.7808 8.13 13.8456L8.1216 13.8528ZM5.8344 12.39L4.9008 13.29C4.76041 13.4228 4.57448 13.4969 4.3812 13.4969C4.18792 13.4969 4.00199 13.4228 3.8616 13.29C3.79355 13.2256 3.73934 13.148 3.70229 13.062C3.66524 12.976 3.64613 12.8833 3.64613 12.7896C3.64613 12.6959 3.66524 12.6032 3.70229 12.5172C3.73934 12.4312 3.79355 12.3536 3.8616 12.2892L4.7964 11.3892C4.93673 11.2567 5.12241 11.1829 5.3154 11.1829C5.50839 11.1829 5.69407 11.2567 5.8344 11.3892C5.90245 11.4536 5.95666 11.5312 5.99371 11.6172C6.03076 11.7032 6.04987 11.7959 6.04987 11.8896C6.04987 11.9833 6.03076 12.076 5.99371 12.162C5.95666 12.248 5.90245 12.3256 5.8344 12.39Z" fill="var(--fill-0, #1A6DA2)"/>
</g>
</svg>
