<svg preserveAspectRatio="none" width="100%" height="100%" overflow="visible" style="display: block;" viewBox="0 0 24 24" fill="none" xmlns="http://www.w3.org/2000/svg">
<g id="streamline-ultimate:hierarchy-5-organize" clip-path="url(#clip0_0_97)">
<path id="Vector" d="M12 7.25V18.75M12 18.75C12.5967 18.75 13.169 18.9871 13.591 19.409C14.0129 19.831 14.25 20.4033 14.25 21C14.25 21.5967 14.0129 22.169 13.591 22.591C13.169 23.0129 12.5967 23.25 12 23.25C11.4033 23.25 10.831 23.0129 10.409 22.591C9.98705 22.169 9.75 21.5967 9.75 21C9.75 20.4033 9.98705 19.831 10.409 19.409C10.831 18.9871 11.4033 18.75 12 18.75ZM3 18.75V14.75C3 14.3522 3.15804 13.9706 3.43934 13.6893C3.72064 13.408 4.10218 13.25 4.5 13.25H19.5C19.8978 13.25 20.2794 13.408 20.5607 13.6893C20.842 13.9706 21 14.3522 21 14.75V18.75M3 18.75C3.59674 18.75 4.16903 18.9871 4.59099 19.409C5.01295 19.831 5.25 20.4033 5.25 21C5.25 21.5967 5.01295 22.169 4.59099 22.591C4.16903 23.0129 3.59674 23.25 3 23.25C2.40326 23.25 1.83097 23.0129 1.40901 22.591C0.987053 22.169 0.75 21.5967 0.75 21C0.75 20.4033 0.987053 19.831 1.40901 19.409C1.83097 18.9871 2.40326 18.75 3 18.75ZM21 18.75C21.5967 18.75 22.169 18.9871 22.591 19.409C23.0129 19.831 23.25 20.4033 23.25 21C23.25 21.5967 23.0129 22.169 22.591 22.591C22.169 23.0129 21.5967 23.25 21 23.25C20.4033 23.25 19.831 23.0129 19.409 22.591C18.9871 22.169 18.75 21.5967 18.75 21C18.75 20.4033 18.9871 19.831 19.409 19.409C19.831 18.9871 20.4033 18.75 21 18.75ZM18.25 0.75H5.75C5.55109 0.75 5.36032 0.829018 5.21967 0.96967C5.07902 1.11032 5 1.30109 5 1.5V6.5C5 6.914 5.336 7.25 5.75 7.25H18.25C18.4489 7.25 18.6397 7.17098 18.7803 7.03033C18.921 6.88968 19 6.69891 19 6.5V1.5C19 1.30109 18.921 1.11032 18.7803 0.96967C18.6397 0.829018 18.4489 0.75 18.25 0.75Z" stroke="var(--stroke-0, #1A6DA2)" stroke-linecap="round" stroke-linejoin="round"/>
</g>
<defs>
<clipPath id="clip0_0_97">
<rect width="24" height="24" fill="white"/>
</clipPath>
</defs>
</svg>
