<svg preserveAspectRatio="none" width="100%" height="100%" overflow="visible" style="display: block;" viewBox="0 0 21 17" fill="none" xmlns="http://www.w3.org/2000/svg">
<g id="Group">
<path id="Vector" d="M3.479 6.185C1.493 5.391 0.5 4.994 0.5 4.5C0.5 4.006 1.493 3.61 3.479 2.815L6.287 1.692C8.273 0.897 9.267 0.5 10.5 0.5C11.733 0.5 12.727 0.897 14.713 1.692L17.521 2.815C19.507 3.609 20.5 4.006 20.5 4.5C20.5 4.994 19.507 5.39 17.521 6.185L14.713 7.309C12.727 8.103 11.733 8.5 10.5 8.5C9.267 8.5 8.273 8.103 6.287 7.309L3.479 6.185Z" stroke="var(--stroke-0, #1A6DA2)"/>
<path id="Vector_2" d="M4.266 6.5L3.479 6.815C1.493 7.609 0.5 8.007 0.5 8.5C0.5 8.993 1.493 9.39 3.479 10.185L6.287 11.309C8.273 12.103 9.267 12.5 10.5 12.5C11.733 12.5 12.727 12.103 14.713 11.309L17.521 10.185C19.507 9.391 20.5 8.993 20.5 8.5C20.5 8.007 19.507 7.61 17.521 6.815L16.734 6.5" stroke="var(--stroke-0, #1A6DA2)"/>
<path id="Vector_3" d="M4.266 10.5L3.479 10.815C1.493 11.609 0.5 12.007 0.5 12.5C0.5 12.993 1.493 13.39 3.479 14.185L6.287 15.309C8.273 16.103 9.267 16.5 10.5 16.5C11.733 16.5 12.727 16.103 14.713 15.308L17.521 14.185C19.507 13.391 20.5 12.994 20.5 12.5C20.5 12.007 19.507 11.61 17.521 10.815L16.734 10.5" stroke="var(--stroke-0, #1A6DA2)"/>
</g>
</svg>
