<svg preserveAspectRatio="none" width="100%" height="100%" overflow="visible" style="display: block;" viewBox="0 0 21 21" fill="none" xmlns="http://www.w3.org/2000/svg">
<g id="Group">
<path id="Vector" d="M17.49 17.5H17.5M17.49 17.5C16.868 18.117 15.74 17.964 14.948 17.964C13.976 17.964 13.508 18.154 12.815 18.847C12.225 19.437 11.434 20.5 10.5 20.5C9.566 20.5 8.775 19.437 8.185 18.847C7.491 18.154 7.023 17.964 6.052 17.964C5.261 17.964 4.132 18.118 3.509 17.5C2.882 16.878 3.036 15.744 3.036 14.948C3.036 13.941 2.816 13.478 2.099 12.762C1.033 11.696 0.5 11.162 0.5 10.5C0.5 9.838 1.033 9.304 2.1 8.238C2.74 7.598 3.036 6.964 3.036 6.052C3.036 5.261 2.882 4.132 3.5 3.509C4.122 2.882 5.256 3.036 6.052 3.036C6.964 3.036 7.598 2.739 8.238 2.099C9.304 1.033 9.838 0.5 10.5 0.5C11.162 0.5 11.696 1.033 12.762 2.1C13.402 2.74 14.036 3.036 14.948 3.036C15.739 3.036 16.868 2.882 17.491 3.5C18.118 4.122 17.964 5.256 17.964 6.052C17.964 7.059 18.184 7.522 18.901 8.238C19.967 9.304 20.5 9.838 20.5 10.5C20.5 11.162 19.967 11.696 18.9 12.762C18.184 13.479 17.964 13.942 17.964 14.948C17.964 15.744 18.117 16.878 17.49 17.5Z" stroke="var(--stroke-0, #1A6DA2)"/>
<path id="Vector_2" d="M7.5 11.393L9.3 13L13.5 8" stroke="var(--stroke-0, #1A6DA2)" stroke-linecap="round" stroke-linejoin="round"/>
</g>
</svg>
