<svg preserveAspectRatio="none" width="100%" height="100%" overflow="visible" style="display: block;" viewBox="0 0 24 24" fill="none" xmlns="http://www.w3.org/2000/svg">
<g id="material-symbols-light:trending-up-rounded">
<path id="Vector" d="M3.354 16.894C3.244 16.784 3.193 16.6653 3.201 16.538C3.209 16.4107 3.26 16.3 3.354 16.206L8.167 11.336C8.47367 11.0173 8.85267 10.858 9.304 10.858C9.75533 10.858 10.1407 11.0173 10.46 11.336L12.88 13.763C12.996 13.8783 13.1373 13.936 13.304 13.936C13.4707 13.936 13.618 13.8783 13.746 13.763L19.331 8.248H16.5C16.358 8.248 16.239 8.20033 16.143 8.105C16.047 8.00967 15.9993 7.89067 16 7.748C16.0007 7.60533 16.0483 7.48633 16.143 7.391C16.2377 7.29567 16.3567 7.248 16.5 7.248H20.192C20.4247 7.248 20.6173 7.32467 20.77 7.478C20.9233 7.63133 21 7.824 21 8.056V11.748C21 11.8907 20.9523 12.0097 20.857 12.105C20.7617 12.2003 20.6427 12.248 20.5 12.248C20.3573 12.248 20.2383 12.2037 20.143 12.115C20.0477 12.0263 20 11.9103 20 11.767V8.956L14.44 14.516C14.1333 14.822 13.7547 14.975 13.304 14.975C12.8527 14.975 12.4737 14.8217 12.167 14.515L9.747 12.095C9.631 11.979 9.48333 11.921 9.304 11.921C9.12467 11.921 8.977 11.9787 8.861 12.094L4.061 16.894C3.955 17.0007 3.83733 17.054 3.708 17.054C3.57867 17.054 3.46067 17.0007 3.354 16.894Z" fill="var(--fill-0, #1A6DA2)"/>
</g>
</svg>
