<svg preserveAspectRatio="none" width="100%" height="100%" overflow="visible" style="display: block;" viewBox="0 0 22 22" fill="none" xmlns="http://www.w3.org/2000/svg">
<g id="Icon">
<path id="Vector" d="M1.89017 11.319C1.81377 11.1132 1.81377 10.8868 1.89017 10.681C2.63422 8.87687 3.89722 7.33429 5.51904 6.24882C7.14086 5.16336 9.04846 4.5839 11 4.5839C12.9515 4.5839 14.8591 5.16336 16.481 6.24882C18.1028 7.33429 19.3658 8.87687 20.1098 10.681C20.1862 10.8868 20.1862 11.1132 20.1098 11.319C19.3658 13.1231 18.1028 14.6657 16.481 15.7512C14.8591 16.8366 12.9515 17.4161 11 17.4161C9.04846 17.4161 7.14086 16.8366 5.51904 15.7512C3.89722 14.6657 2.63422 13.1231 1.89017 11.319Z" stroke="var(--stroke-0, #1A6DA2)" stroke-width="1.46667" stroke-linecap="round" stroke-linejoin="round"/>
<path id="Vector_2" d="M11 13.75C12.5188 13.75 13.75 12.5188 13.75 11C13.75 9.48122 12.5188 8.25 11 8.25C9.48122 8.25 8.25 9.48122 8.25 11C8.25 12.5188 9.48122 13.75 11 13.75Z" stroke="var(--stroke-0, #1A6DA2)" stroke-width="1.46667" stroke-linecap="round" stroke-linejoin="round"/>
</g>
</svg>
