<svg width="24" height="30" viewBox="0 0 24 30" fill="none" xmlns="http://www.w3.org/2000/svg">
<path d="M19.9246 12.8281C19.9246 18.2502 14.3856 23.8971 12.5256 25.6411C12.3523 25.7826 12.1414 25.8591 11.9246 25.8591C11.7078 25.8591 11.4969 25.7826 11.3236 25.6411C9.46362 23.8971 3.92462 18.2502 3.92462 12.8281C3.92462 10.5241 4.76748 8.31436 6.26777 6.68513C7.76806 5.05591 9.80289 4.14063 11.9246 4.14062C14.0464 4.14063 16.0812 5.05591 17.5815 6.68513C19.0818 8.31436 19.9246 10.5241 19.9246 12.8281Z" stroke="#558BAD" stroke-width="1.08594" stroke-linecap="round" stroke-linejoin="round"/>
<path d="M11.925 16.0859C13.5818 16.0859 14.925 14.6274 14.925 12.8281C14.925 11.0289 13.5818 9.57031 11.925 9.57031C10.2681 9.57031 8.92499 11.0289 8.92499 12.8281C8.92499 14.6274 10.2681 16.0859 11.925 16.0859Z" stroke="#558BAD" stroke-width="1.08594" stroke-linecap="round" stroke-linejoin="round"/>
</svg>
