<svg width="25" height="25" viewBox="0 0 25 25" fill="none" xmlns="http://www.w3.org/2000/svg">
<g clip-path="url(#clip0_43_3099)">
<rect width="25" height="25" rx="12.5" fill="white"/>
<rect x="-3" y="-3" width="44" height="33" fill="#006923"/>
<path fill-rule="evenodd" clip-rule="evenodd" d="M10.4646 6.54346C10.4428 6.54346 10.4101 6.55552 10.3683 6.58367C10.2701 6.65605 10.0773 6.87922 10.0701 7.13657C10.0646 7.28334 10.0392 7.28334 10.1246 7.37784C10.1864 7.47434 10.2519 7.4663 10.3755 7.39191C10.4483 7.3316 10.4719 7.29742 10.4974 7.1989C10.5265 7.03805 10.3392 7.27932 10.3155 7.09435C10.2737 6.92546 10.3937 6.85308 10.5065 6.69224C10.5101 6.61182 10.5101 6.5515 10.4646 6.54748V6.54346ZM12.2884 6.55351C12.252 6.56155 12.2102 6.61383 12.1502 6.73044C12.1084 6.85509 11.9247 7.04409 12.0593 7.43413C12.1648 7.68143 12.2102 8.08153 12.1611 8.52989C12.0848 8.65655 12.0702 8.70078 11.9702 8.82745C11.832 8.99432 11.6793 8.9521 11.5665 8.88776C11.4574 8.80734 11.3738 8.76713 11.3247 8.5138C11.3338 8.11169 11.3556 7.44419 11.2883 7.30345C11.1901 7.08631 11.0265 7.16271 10.9574 7.22906C10.6247 7.57085 10.4592 8.13984 10.3574 8.59623C10.2664 8.92597 10.1664 8.82946 10.0973 8.69676C9.92824 8.51983 9.91551 7.14863 9.71186 7.37583C9.38456 8.40925 9.89914 9.5412 10.2574 9.43061C10.5119 9.55125 10.6756 9.0084 10.781 8.41528C10.8538 8.24841 10.9083 8.2283 10.9447 8.31476C10.9356 9.10289 10.9992 9.27982 11.1811 9.51707C11.5884 9.86691 11.9266 9.5613 11.9538 9.53315L12.272 9.18332C12.3448 9.10289 12.4357 9.09485 12.5357 9.16723C12.6339 9.26776 12.6212 9.43464 12.8266 9.54924C13.0048 9.62966 13.3776 9.56934 13.463 9.40247C13.5812 9.18131 13.6085 9.1049 13.6631 9.02046C13.7467 8.89983 13.8903 8.95411 13.8903 8.99231C13.8776 9.06268 13.794 9.13305 13.8503 9.25369C13.9504 9.33411 13.974 9.28183 14.0322 9.26374C14.2395 9.15517 14.3958 8.65655 14.3958 8.65655C14.4049 8.47158 14.3104 8.48565 14.2504 8.52385C14.1686 8.57814 14.1649 8.59623 14.0867 8.65052C13.9831 8.6666 13.7867 8.74099 13.6903 8.57412C13.5903 8.37306 13.5903 8.09561 13.514 7.89053C13.514 7.87847 13.3812 7.57487 13.503 7.55678C13.5631 7.56884 13.6976 7.60704 13.7176 7.4844C13.7831 7.36376 13.5776 7.02197 13.4376 6.85308C13.3176 6.70631 13.1503 6.68822 12.9885 6.837C12.8739 6.95361 12.8921 7.08229 12.8685 7.20493C12.8412 7.34567 12.8466 7.52059 12.9776 7.70757C13.0903 7.95286 13.2958 8.27052 13.2267 8.71687C13.2267 8.71687 13.1085 8.92999 12.8994 8.90184C12.8084 8.88173 12.6666 8.84152 12.5903 8.21825C12.5357 7.74979 12.6048 7.09234 12.4266 6.78472C12.3848 6.67012 12.3502 6.55753 12.292 6.56356L12.2884 6.55351ZM11.7102 6.60578C11.6556 6.61182 11.5956 6.68219 11.5465 6.81689C11.5047 6.92144 11.452 7.46027 11.4611 7.46027C11.4247 7.62111 11.612 7.68947 11.6975 7.4844C11.8247 7.10239 11.8247 6.94155 11.832 6.78472C11.8138 6.66409 11.7647 6.60176 11.7102 6.60578ZM13.8431 6.646C13.7885 6.65404 13.7431 6.69023 13.7267 6.78271C13.7031 6.99583 13.7158 7.11445 13.7485 7.29339C13.7722 7.41403 13.9304 7.61106 14.0067 7.72767C14.3758 8.27656 14.734 8.82745 15.0759 9.39643C15.1304 9.82267 15.1668 10.2368 15.1941 10.651C15.2523 11.5558 15.2668 12.6817 15.2177 13.6367C15.3705 13.6427 15.6177 13.3612 15.7032 12.9531C15.7578 12.3821 15.685 11.224 15.6778 10.8863L15.6596 10.4077C16.0596 11.1315 16.4451 11.8956 16.8233 12.7319C16.9633 12.6596 16.9324 11.797 16.8524 11.6764C16.5469 10.9526 16.1251 10.2368 15.9923 9.9614C15.9432 9.86087 15.7778 9.58543 15.5832 9.26575C15.5468 8.80734 15.5068 8.42132 15.4814 8.3047C15.4177 7.82217 15.6596 8.35899 15.6268 8.07952C15.5468 7.59699 15.3068 7.27128 15.0232 6.82896C14.9322 6.68822 14.9322 6.65605 14.7922 6.86515C14.7104 7.07625 14.7104 7.25318 14.7377 7.41805C14.6977 7.35773 14.6522 7.28937 14.5868 7.20091L14.1231 6.76663C14.0595 6.71637 13.9358 6.63996 13.8431 6.646ZM20.1635 6.72039C20.1363 6.71636 20.109 6.73044 20.0726 6.78472C20.009 6.84504 19.9417 6.95964 19.9453 7.10641C19.9581 7.35773 19.9999 7.61709 20.0144 7.87042L20.0326 7.97095C20.0072 7.93878 19.9853 7.91063 19.9726 7.89857C19.5235 7.37583 20.1781 7.81011 19.8853 7.41001C19.6399 7.10842 19.5671 7.01594 19.358 6.83499C19.2489 6.76261 19.1871 6.61785 19.1526 6.86314C19.138 7.07827 19.1235 7.32958 19.1344 7.51053C19.1344 7.61106 19.2307 7.80206 19.3126 7.91265C19.6108 8.32079 19.9163 8.75306 20.2217 9.20342C20.2872 10.1222 20.3036 10.9647 20.3672 11.8855C20.3599 12.2796 20.2508 12.8023 20.149 12.8506C20.149 12.8506 19.989 12.9511 19.8835 12.8405C19.8053 12.8063 19.498 12.2715 19.498 12.2715C19.3398 12.1107 19.2344 12.1569 19.1235 12.2715C18.8143 12.6013 18.6725 13.2205 18.4634 13.6467C18.4089 13.7412 18.2579 13.8237 18.0888 13.6387C17.6579 12.9873 17.907 12.0604 17.8561 12.2997C17.4743 12.7782 17.6415 13.5703 17.7288 13.7412C17.8561 14.0227 17.9579 14.2037 18.2016 14.3384C18.4289 14.5193 18.6016 14.4087 18.6998 14.2781C18.9253 14.0207 18.9289 13.3592 19.0344 13.2286C19.1071 12.9873 19.2944 13.0275 19.3853 13.1361C19.4762 13.2768 19.578 13.3673 19.7071 13.4437C19.9181 13.6488 20.169 13.6849 20.4163 13.498C20.5854 13.3934 20.6963 13.2567 20.7945 12.9873C20.9036 12.6736 20.849 11.025 20.8254 10.1082L21.2982 10.8641C21.3636 11.6684 21.3945 12.4625 21.3709 13.2225C21.3564 13.3733 21.8491 12.7722 21.8437 12.4867C21.8437 12.2394 21.8473 12.0122 21.8437 11.8031C22.0855 12.2253 22.3164 12.6535 22.5346 13.0898C22.671 13.0094 22.6255 12.1589 22.5401 12.0443C22.311 11.6181 22.0164 11.1597 21.7891 10.8018C21.7437 10.3535 21.6837 9.82468 21.6546 9.66183C21.6127 9.4085 21.5691 9.0285 21.5036 8.72893C21.4855 8.61433 21.4309 8.24037 21.4491 8.20619C21.4745 8.11973 21.5764 8.20619 21.6255 8.10968C21.6982 8.0192 21.3673 7.06419 21.1982 6.79478C21.1382 6.67414 21.0272 6.71435 20.8927 6.91541C20.7654 7.04409 20.8127 7.34165 20.86 7.62514C20.9836 8.34894 21.0963 9.08078 21.1836 9.81664C21.02 9.54522 20.82 9.21951 20.6236 8.90787L20.5981 8.76713C20.5981 8.75105 20.5727 8.17402 20.549 8.0373C20.5436 7.981 20.5308 7.96492 20.5854 7.97296C20.6399 8.02524 20.6472 8.02725 20.6818 8.04534C20.7399 8.05338 20.7909 7.94884 20.7545 7.85032L20.2272 6.77668C20.209 6.75054 20.1835 6.72642 20.1544 6.7224L20.1635 6.72039ZM3.85324 6.74049C3.75323 6.73647 3.64777 6.80081 3.68959 6.93149C3.66413 7.00186 3.8787 7.23911 3.91688 7.3698C3.94779 7.46429 3.88051 7.76185 3.95325 7.79201C4.01689 7.82217 4.10598 7.58291 4.13871 7.36376C4.1569 7.24313 4.14417 6.82896 3.8896 6.74451C3.87688 6.74049 3.86415 6.74049 3.8496 6.73848L3.85324 6.74049ZM22.4364 6.74049C22.4128 6.74451 22.3855 6.7807 22.3455 6.88123C22.2455 7.06218 22.211 7.38387 22.251 7.66535C22.4874 9.45474 22.6692 11.1878 22.7055 12.7722C22.6837 12.925 22.6765 13.0054 22.6146 13.1944C22.4728 13.3954 22.3164 13.6447 22.1691 13.7654C22.0237 13.886 21.7109 14.0026 21.6091 14.0911C21.2818 14.2962 21.2818 14.5334 21.5436 14.5435C21.9946 14.4831 22.5292 14.4429 22.8965 13.8297C22.9947 13.6588 23.111 13.1924 23.1147 12.9049C23.151 11.2361 23.0965 9.59749 22.8692 8.38915C22.8547 8.26851 22.8074 8.00111 22.8256 7.96693C22.8528 7.88249 23.0001 7.97296 23.0528 7.87847C23.131 7.79 22.671 7.14059 22.511 6.86314C22.4783 6.79478 22.4564 6.73647 22.431 6.7425L22.4364 6.74049ZM17.7034 6.76864C17.6852 6.77266 17.6597 6.80483 17.6088 6.87922C17.4815 7.33361 17.4379 7.70355 17.487 7.98905C17.8143 9.85886 18.1416 11.5578 18.0907 13.3371C18.2434 13.3371 18.4216 12.9491 18.498 12.5631C18.5398 12.0303 18.4689 11.7066 18.458 11.3969C18.4452 11.0833 18.1379 8.54999 18.0761 8.31476C17.9997 7.86841 18.3743 8.25444 18.3343 7.99709C18.2034 7.66736 17.8797 7.19287 17.7815 6.90536C17.7452 6.82896 17.7379 6.75859 17.7088 6.76462L17.7034 6.76864ZM6.18614 6.80483C6.14977 6.81287 6.10795 6.84906 6.09522 6.90536C6.08613 6.94557 6.10977 7.01192 6.07704 7.03202C6.05886 7.05213 5.98976 7.03805 5.9934 6.93149C5.9934 6.8953 5.96976 6.85911 5.95703 6.837C5.94248 6.82896 5.93339 6.82695 5.90794 6.82695C5.87703 6.82695 5.87703 6.837 5.86066 6.86716C5.85339 6.8953 5.84248 6.92345 5.84248 6.95562C5.83884 6.99583 5.82429 7.00588 5.80066 7.01192C5.77156 7.01192 5.77702 7.01594 5.7552 6.99784C5.73701 6.98377 5.72247 6.97774 5.72247 6.94959C5.72247 6.91943 5.71519 6.86917 5.70792 6.85308C5.69519 6.83298 5.67519 6.82494 5.65337 6.8189C5.53336 6.8189 5.52609 6.97573 5.53155 7.03202C5.52245 7.04409 5.51882 7.3135 5.68247 7.3899C5.90066 7.50651 6.31524 7.45625 6.30069 7.06419C6.30069 7.03001 6.2916 6.9134 6.28797 6.88324C6.26615 6.82292 6.22432 6.80282 6.18432 6.80885L6.18614 6.80483ZM9.14272 6.80885C9.06635 6.81287 8.99726 6.837 8.94271 6.86917C8.79724 7.02398 8.76088 7.27128 8.87725 7.42609C8.98635 7.48641 9.1009 7.60704 9.02635 7.67741C8.70996 8.04936 7.88627 8.67465 7.84444 8.78925V8.80131H7.85172V8.80533C7.89354 8.83549 8.40994 8.83549 8.46631 8.80533H8.46994C8.64814 8.73094 9.4882 7.66937 9.4882 7.66937C9.44456 7.62916 9.40456 7.59699 9.36092 7.55477C9.31364 7.51053 9.3191 7.4663 9.36092 7.42207C9.56821 7.28937 9.50275 6.99382 9.39365 6.85911C9.30273 6.81488 9.21909 6.7988 9.14272 6.80483V6.80885ZM16.8706 6.80885C16.8488 6.81488 16.8215 6.84906 16.7797 6.94959C16.6796 7.13054 16.6124 7.44218 16.6215 7.73371C16.836 9.38236 16.9015 10.8239 17.0433 12.4726C17.0542 12.6334 17.0324 12.8626 16.9378 12.9551C16.5815 13.3653 16.0705 13.8679 15.5141 14.1011C15.4541 14.1755 15.6632 14.4912 15.9323 14.4912C16.3833 14.4309 16.7797 14.1534 17.1506 13.4155C17.247 13.2446 17.4197 12.8767 17.4233 12.5912C17.4597 10.9184 17.3506 9.61559 17.1215 8.40925C17.1088 8.28862 17.1179 8.14788 17.136 8.11571C17.1651 8.0755 17.2633 8.11571 17.3179 8.02121C17.3942 7.93275 17.1106 7.21096 16.9506 6.93552C16.9178 6.86515 16.8997 6.80684 16.8706 6.80885ZM4.89877 6.86314C4.83695 6.87118 4.77876 6.92345 4.74967 7.00387C4.74058 7.26525 4.73876 7.52662 4.76785 7.77191C4.87695 8.20016 4.90786 8.57613 4.96059 9.01242C4.97878 9.5995 4.65512 9.26575 4.66966 8.97623C4.7424 8.59825 4.72421 8.00513 4.65875 7.85434C4.6042 7.70355 4.54602 7.66736 4.41874 7.6935C4.31873 7.68545 4.05871 7.99508 3.98598 8.51782C3.98598 8.51782 3.92415 8.78322 3.8987 9.02046C3.86233 9.28787 3.70232 9.47887 3.58958 8.98427C3.49321 8.62237 3.43503 7.73773 3.2732 7.9428C3.22592 8.63444 3.17137 9.85283 3.70232 9.97749C4.346 10.0458 3.98961 8.77517 4.22236 8.54396C4.26781 8.43338 4.34964 8.43137 4.35509 8.57412V9.65379C4.34782 10.0036 4.55511 10.1082 4.71876 10.1806C4.88786 10.1665 4.99878 10.1725 5.06424 10.3535L5.14606 12.2233C5.14606 12.2233 5.53518 12.3439 5.55336 11.1718C5.57155 10.4821 5.42608 9.90511 5.51154 9.7704C5.51518 9.6377 5.66792 9.62966 5.77338 9.69601C5.94248 9.82669 6.01704 9.98754 6.27887 9.9232C6.6789 9.80257 6.91528 9.58945 6.92074 9.25167C6.90256 8.92999 6.86619 8.6083 6.73891 8.28661C6.75709 8.23031 6.66617 8.07952 6.68436 8.02121C6.75345 8.14185 6.86255 8.13381 6.88437 8.02121C6.81891 7.77392 6.71345 7.53868 6.54253 7.43815C6.40252 7.29742 6.19705 7.32757 6.12068 7.61307C6.08431 7.9428 6.22978 8.33285 6.44798 8.65253C6.49162 8.77718 6.55708 8.98427 6.52798 9.17125C6.41343 9.24363 6.29888 9.21146 6.20069 9.10088C6.20069 9.10088 5.88612 8.83951 5.88612 8.77919C5.97158 8.18608 5.9043 8.11571 5.85884 7.95487C5.82611 7.72566 5.72792 7.65328 5.64974 7.49646C5.56973 7.40196 5.46245 7.40196 5.41335 7.49646C5.27153 7.76386 5.33699 8.34089 5.43881 8.59623C5.51154 8.83348 5.62428 8.98226 5.57155 8.98226C5.52791 9.11295 5.43699 9.08279 5.37153 8.92798C5.28062 8.60629 5.2588 8.1318 5.2588 7.91667C5.23152 7.65127 5.20061 7.08229 5.0406 6.93753C4.99878 6.87319 4.94968 6.85107 4.90059 6.8571L4.89877 6.86314ZM7.15712 6.86314C7.12621 6.87118 7.08984 6.89128 7.04802 6.90335C6.91165 6.94959 6.78437 7.08028 6.82437 7.33361C6.98802 8.4193 7.09166 9.24966 7.25349 10.3354C7.27713 10.464 7.18076 10.6309 7.05711 10.6168C6.84619 10.456 6.79346 10.1343 6.43343 10.1504C6.17159 10.1504 5.87339 10.4681 5.83702 10.7696C5.79338 11.0109 5.77884 11.2723 5.83702 11.4814C6.01885 11.7226 6.24069 11.6985 6.43343 11.6422C6.59162 11.5719 6.72436 11.401 6.77891 11.4412C6.81528 11.5075 6.77527 12.0725 6.0334 12.5068C5.57519 12.736 5.21152 12.7882 5.01514 12.3781C4.89513 12.1207 5.02605 11.1396 4.72785 11.3648C3.84415 13.882 6.79528 14.2318 7.12439 11.4693C7.14621 11.3889 7.20985 11.3125 7.25713 11.3326C7.27531 11.3427 7.29349 11.3728 7.30077 11.4291C7.23167 13.9302 5.01696 14.1031 4.64239 13.315C4.54784 13.13 4.52056 12.7159 4.51147 12.4706C4.49329 12.3198 4.46056 12.2333 4.42055 12.1991C4.32964 12.1248 4.20963 12.3198 4.18417 12.6555C4.14781 12.927 4.1569 13.0014 4.1569 13.2627C4.27691 15.2391 7.12621 14.3886 7.58988 12.7601C7.81899 11.9157 7.58442 11.2783 7.66261 11.1999L7.66807 11.1959H7.67352L7.68261 11.1919C7.96627 11.5296 8.36266 11.2321 8.44994 11.1175C8.48631 11.0572 8.58086 11.0169 8.64632 11.0974C8.86452 11.2703 9.25364 11.1878 9.33365 10.8762C9.38092 10.5746 9.42093 10.265 9.43002 9.9413C9.28455 9.99156 9.16818 10.0277 9.1209 10.082C9.10999 10.0961 9.10272 10.1122 9.09908 10.1283L9.06272 10.3957C9.06272 10.4057 9.05908 10.4118 9.05544 10.4158C9.04999 10.4299 9.03726 10.4399 9.02999 10.4459C8.97907 10.4761 8.88998 10.46 8.88452 10.3776C8.81724 10.0358 8.5354 9.99156 8.36448 10.5244C8.24993 10.6249 8.03719 10.645 8.019 10.4922C8.04628 10.1343 7.91536 10.0861 7.65534 10.2549L7.40441 8.16396C7.51351 8.15793 7.6117 8.24439 7.71353 8.10767C7.60443 7.73773 7.37714 6.98578 7.24804 6.9134H7.2444L7.22622 6.89329C7.22622 6.88927 7.22076 6.88726 7.21712 6.88525L7.20985 6.87319C7.20258 6.87319 7.1953 6.86917 7.19167 6.86716C7.17894 6.86314 7.16985 6.86314 7.15712 6.86314ZM15.9614 6.87118C15.8487 6.86716 15.725 6.94557 15.7723 7.10239C15.7432 7.18885 16.0141 7.47837 16.0578 7.63519C16.136 7.87646 15.9978 8.11169 16.0796 8.14587C16.156 8.18206 16.2614 7.89455 16.2978 7.62715C16.3451 7.41001 16.2069 6.96768 16.0069 6.87721L15.9614 6.87319V6.87118ZM9.1009 7.13456C9.15181 7.13054 9.21364 7.18281 9.24637 7.25519C9.27728 7.33562 9.26091 7.41001 9.21 7.42408C9.15545 7.43815 9.08635 7.38789 9.05363 7.30747C9.0209 7.22705 9.03544 7.15266 9.08999 7.13858H9.1009V7.13456ZM21.8237 7.50048C21.72 7.49646 21.6055 7.5809 21.6527 7.7518C21.6273 7.84429 21.8709 8.15793 21.9128 8.33084C21.9491 8.45147 21.8582 8.84554 21.9309 8.88173C22 8.92194 22.0946 8.6083 22.131 8.31878C22.1528 8.15793 22.0473 7.60503 21.8673 7.50651C21.8546 7.50249 21.84 7.49847 21.8255 7.49847L21.8237 7.50048ZM14.7868 7.6935C14.7995 7.73974 14.8086 7.78598 14.8141 7.83423C14.8359 7.93476 14.8541 8.03529 14.8722 8.13984C14.7922 8.01518 14.7268 7.91466 14.6959 7.87847C14.514 7.6372 14.6995 7.72164 14.7868 7.6935ZM16.4105 8.57412C16.3705 8.58216 16.3323 8.62036 16.3196 8.68068C16.3087 8.71687 16.3342 8.7812 16.3014 8.80131C16.2833 8.82142 16.2105 8.80935 16.216 8.70078C16.216 8.66459 16.1923 8.62639 16.1796 8.60629C16.1651 8.59623 16.156 8.59221 16.1305 8.59221C16.0996 8.59221 16.0996 8.60227 16.0832 8.63242C16.076 8.66057 16.0651 8.68872 16.0651 8.7229C16.0651 8.76311 16.0505 8.77517 16.0251 8.78322C15.996 8.78322 16.0014 8.78322 15.9778 8.76914C15.9632 8.74904 15.9469 8.74502 15.9469 8.71687C15.9469 8.68671 15.9414 8.64047 15.9323 8.62036C15.9196 8.60026 15.9014 8.59422 15.8778 8.58618C15.7596 8.58618 15.7505 8.73898 15.7578 8.79528C15.7505 8.80734 15.745 9.08078 15.9087 9.15718C16.1305 9.27178 16.5451 9.2175 16.5269 8.82745C16.5269 8.79327 16.5178 8.67666 16.516 8.6465C16.4924 8.58618 16.4505 8.56608 16.4124 8.57211L16.4105 8.57412ZM9.00998 8.65454C8.98453 8.65454 8.94816 8.66258 8.90634 8.69073C8.71178 8.80734 8.63723 9.15316 8.76088 9.35421C8.86998 9.53516 9.05181 9.46882 9.07544 9.46882C9.26637 9.49696 9.3791 9.07475 9.3791 9.07475C9.3791 9.07475 9.38456 8.95411 9.1609 9.1793C9.06272 9.1994 9.05181 9.15919 9.02635 9.09887C9.00453 8.99231 9.00817 8.87771 9.05363 8.77115C9.07544 8.7048 9.05362 8.66258 9.00998 8.65856V8.65454ZM19.4708 8.70882C19.3617 8.70279 19.2471 8.7812 19.2162 8.94406C19.2162 9.04057 19.2562 9.09284 19.2489 9.18131C19.2398 9.23157 19.1944 9.26173 19.0816 9.20543C19.0998 9.18533 19.0089 9.04861 19.0089 9.04861C18.9234 8.98829 18.8089 9.04861 18.7325 9.1049C18.6907 9.18935 18.6598 9.3321 18.7071 9.47686C18.8307 9.7322 19.258 10.1665 19.4617 10.1705C19.4653 9.9413 19.4853 9.63569 19.498 9.4467C19.5017 9.37432 19.5162 9.29591 19.5799 9.27781C19.6417 9.25771 19.749 9.34617 19.749 9.27178C19.7381 9.12702 19.7126 8.90988 19.6399 8.80935C19.5999 8.74904 19.5362 8.71285 19.4726 8.70882H19.4708ZM10.8101 9.50702L10.8047 9.51305C10.8047 9.51305 10.801 9.51305 10.7992 9.51707C10.7774 9.53717 10.7519 9.57738 10.6956 9.6176C10.5992 9.73823 10.5828 9.82468 10.5865 10.066C10.5937 10.0921 10.7683 10.6349 10.9192 11.0149C11.021 11.411 11.1138 11.8654 11.0465 12.2936C10.8101 12.8606 10.3374 13.3693 9.87732 13.6467C9.64094 13.7272 9.44093 13.699 9.38638 13.6427C9.25182 13.5422 9.25 13.3612 9.2591 13.3331V13.3271C9.64458 13.0295 10.0864 12.7882 10.4319 11.986C10.5337 11.6784 10.5665 11.4934 10.4646 11.021C10.4246 10.84 10.3737 10.6993 10.2646 10.5706H10.2683C10.3337 10.5364 10.5046 10.6751 10.5319 10.5907C10.4901 10.3615 10.3501 10.0579 10.1955 9.90108C10.0573 9.76035 9.9046 9.74627 9.78095 9.87294C9.63912 9.9614 9.61003 10.275 9.67731 10.5485C9.75368 10.7536 9.95915 10.7897 10.1046 11.2059C10.1082 11.2341 10.1537 11.5176 10.081 11.6342C10.0192 11.8393 9.25364 12.5068 9.19909 12.547L9.19364 12.551L9.19 12.555H9.18636H9.18272V12.549C9.17909 12.5329 9.18272 12.4887 9.18272 12.4223C9.17727 12.2977 9.22455 12.0142 9.21909 11.9639V11.9599C8.96453 12.1408 8.87907 12.6937 8.83361 12.8586C8.19174 13.3472 7.46442 13.7111 7.04438 14.2057C6.82619 14.5877 8.54995 13.7754 8.74997 13.6769L8.75542 13.6829C8.79542 13.7292 8.79724 13.89 8.9118 14.0368C9.09363 14.3042 9.47184 14.4691 9.84277 14.3665C10.4646 14.1192 10.8247 13.6508 11.1883 13.13C11.2392 13.0496 11.3211 12.9813 11.3974 13.0456C11.6465 13.6648 12.3702 14.1072 13.303 14.1514C13.5212 13.8619 13.4176 13.7191 13.3303 13.6588C13.303 13.6387 12.8666 13.4497 12.7975 13.2627C12.7557 13.0898 12.8594 12.935 13.0667 12.8204C13.6667 12.74 14.2558 12.6495 14.8268 12.4464C14.8322 12.2333 14.945 11.9177 15.0213 11.7789C15.0759 11.6844 15.1068 11.6744 15.1195 11.6623V11.6583H15.1232V11.6523V11.6322L15.025 11.5678L13.1103 11.5598C13.0867 11.5497 13.0703 11.5397 13.0594 11.5296L13.0557 11.5236C13.0557 11.5236 13.0521 11.5236 13.0521 11.5196C13.0521 11.5156 13.0485 11.5156 13.0485 11.5156V11.5135V11.5095V11.5055L13.0521 11.4995C13.0612 11.4874 13.0848 11.4733 13.1121 11.4593C13.5703 11.3929 14.3813 11.2461 14.4358 10.3836C14.4268 9.93325 14.2613 9.63971 13.7631 9.55929C13.3958 9.58945 13.1339 9.98151 13.1757 10.4118C13.1576 10.5264 13.2121 10.7536 13.103 10.7797C12.4011 10.8521 11.6338 11.3386 11.6084 11.6885H11.6047H11.6011H11.5974C11.5974 11.6925 11.592 11.6925 11.592 11.6925H11.5847H11.5811H11.5738C11.5284 11.6764 11.4702 11.592 11.4793 11.4774C11.452 10.8742 11.2738 10.1906 10.9974 9.66786C10.8974 9.55728 10.8519 9.51305 10.8265 9.50702H10.821H10.8156H10.8101ZM12.643 9.82468C12.6066 9.83273 12.5648 9.86892 12.5521 9.92923C12.543 9.96944 12.5702 10.0338 12.5375 10.0539C12.5193 10.074 12.4466 10.0619 12.4502 9.95336C12.4502 9.91918 12.4266 9.88098 12.4139 9.85886C12.3993 9.84881 12.3902 9.8468 12.3666 9.8468C12.3357 9.8468 12.3339 9.85484 12.3175 9.88299C12.3084 9.91114 12.2993 9.94331 12.2993 9.97346C12.2957 10.0137 12.2811 10.0257 12.2575 10.0298C12.2284 10.0298 12.2357 10.0358 12.212 10.0197C12.1975 10.0036 12.1793 9.99558 12.1793 9.96743C12.1793 9.93727 12.1739 9.88701 12.1666 9.86691C12.1539 9.85283 12.1339 9.8468 12.112 9.83876C11.9902 9.83876 11.9848 9.98955 11.9902 10.0479C11.9811 10.0579 11.9757 10.3293 12.1393 10.4057C12.3575 10.5223 12.8848 10.454 12.7575 10.078C12.7575 10.0438 12.7484 9.92722 12.7466 9.89706C12.723 9.83675 12.6812 9.81664 12.6412 9.82267L12.643 9.82468ZM20.0344 10.1604H20.0163C20.0163 10.1604 18.9944 10.9647 18.9707 10.9928C18.8689 11.0933 18.9198 11.4412 18.9707 11.401C19.0435 11.4311 20.0708 10.6611 20.0508 10.5706C20.0963 10.5746 20.1181 10.1745 20.0326 10.1584L20.0344 10.1604ZM13.6085 10.2811C13.6485 10.275 13.7031 10.2911 13.754 10.3213C13.8322 10.3736 13.8813 10.4459 13.8722 10.5022V10.5103C13.8685 10.5103 13.8685 10.5103 13.8685 10.5143V10.5183C13.8685 10.5183 13.8649 10.5183 13.8649 10.5223C13.8649 10.5264 13.8594 10.5304 13.8558 10.5344C13.8194 10.5746 13.7358 10.5666 13.6558 10.5143C13.5794 10.4681 13.534 10.3937 13.5376 10.3414V10.3354L13.5467 10.3153C13.5467 10.3153 13.5467 10.3112 13.5503 10.3092L13.5594 10.2972C13.5721 10.2871 13.5885 10.2771 13.6085 10.2771V10.2811ZM4.66603 10.4821C4.13871 10.4942 3.36229 11.2502 3.34229 11.6684L5.01514 10.7837C4.92423 10.6309 5.00969 10.4942 4.66603 10.4821ZM6.3807 10.7435C6.43161 10.7475 6.48616 10.7757 6.51525 10.8561C6.54071 10.9305 6.51525 11.0069 6.48434 11.0451V11.0511C6.45889 11.0833 6.38252 11.0712 6.32615 11.0712C6.25887 11.0672 6.22614 11.0551 6.18614 10.9948C6.16432 10.9245 6.22251 10.8581 6.24978 10.8099L6.26251 10.7898C6.28069 10.7696 6.31706 10.7536 6.35342 10.7495L6.37706 10.7455L6.3807 10.7435ZM19.8362 10.9787C19.7399 10.9908 19.6508 11.0893 19.6908 11.2461C19.6653 11.3386 19.8181 11.6623 19.8599 11.8332C19.8962 11.9539 19.8126 12.3017 19.8872 12.3359C19.9563 12.3761 20.1363 12.1348 20.1308 11.8252C20.149 11.6643 20.0799 11.0813 19.8999 10.9848C19.8781 10.9787 19.8581 10.9767 19.8362 10.9787ZM8.40994 11.5497C8.3263 11.5558 8.25175 11.604 8.2863 11.7347C8.28084 11.8272 8.52268 11.9418 8.5354 12.1569C8.56813 12.2494 8.48085 12.5389 8.55359 12.5631C8.61905 12.5932 8.70996 12.362 8.74451 12.1529C8.76269 12.0363 8.66087 11.6302 8.48995 11.5558C8.46267 11.5477 8.4354 11.5457 8.40812 11.5477L8.40994 11.5497ZM11.8284 12.0644H11.8502C12.0648 12.1288 12.3775 12.1368 12.6503 12.165C12.8739 12.1851 12.983 12.3741 12.7775 12.4565C12.5702 12.5329 12.3721 12.5972 12.3721 12.9229C12.3975 13.0838 12.3902 13.1682 12.3684 13.2044C12.3684 13.2105 12.3611 13.2165 12.3611 13.2165C12.3611 13.2165 12.3611 13.2205 12.3575 13.2205V13.2245H12.3521L12.3393 13.2306H12.3302C12.2811 13.2406 12.2102 13.1904 12.1575 13.1582C12.0302 13.0577 11.6756 12.8164 11.6247 12.2936C11.6175 12.173 11.6975 12.0725 11.8247 12.0624L11.8284 12.0644ZM3.47503 12.4666C3.4623 12.4666 3.43866 12.5108 3.4023 12.561C3.08591 13.114 3.05682 13.9403 3.23137 14.1896C3.32229 14.3042 3.47503 14.3565 3.58776 14.3203C3.78778 14.2258 3.87324 13.7815 3.82415 13.6206C3.7605 13.506 3.70777 13.4879 3.64231 13.5844C3.5023 13.8961 3.4423 13.6809 3.43321 13.504C3.41139 13.1763 3.44048 12.8707 3.47321 12.6294C3.49139 12.5088 3.49139 12.4625 3.47321 12.4625L3.47503 12.4666ZM14.1976 13.1944C14.174 13.1944 14.1504 13.1984 14.1249 13.2145C14.1195 13.2145 13.8994 13.3753 13.8285 13.4919C13.7849 13.5281 13.7922 13.5583 13.8031 13.6226C13.8358 13.7091 13.894 13.6829 13.9631 13.6427C14.054 13.6266 14.0958 13.693 14.0904 13.8116C14.0485 13.9624 14.1085 14.0167 14.1085 14.0267C14.1085 14.0348 14.194 14.1172 14.2958 14.0529C14.5086 13.9624 14.6413 13.8719 14.9413 13.8016C15.0195 13.8016 15.0141 13.5683 14.8904 13.5603C14.7268 13.5683 14.5813 13.5804 14.4177 13.7211C14.3177 13.7453 14.3013 13.6769 14.2776 13.6166C14.2522 13.4678 14.3358 13.3633 14.3177 13.2507C14.3213 13.2567 14.2667 13.2024 14.1958 13.1984L14.1976 13.1944ZM21.0636 13.4759L20.9181 13.4919C20.8527 13.506 20.8309 13.5382 20.8181 13.6266C20.8236 13.7573 20.8963 13.7513 20.9727 13.8036C21.0163 13.8639 21.0454 13.9202 20.9691 14.0247C20.8963 14.0951 20.8472 14.1353 20.7745 14.2057C20.7436 14.27 20.7199 14.3665 20.8254 14.3987C21.0163 14.459 21.4582 14.1413 21.4582 14.1373C21.5309 14.077 21.5055 13.9624 21.5 13.9624C21.4564 13.9101 21.3618 13.9423 21.3 13.9322C21.2691 13.9322 21.1727 13.9162 21.2163 13.8197C21.2563 13.7593 21.2709 13.7252 21.2982 13.6508C21.3254 13.5784 21.2982 13.5301 21.1927 13.4899C21.1382 13.4779 21.1018 13.4738 21.06 13.4759H21.0636Z" fill="white"/>
<path d="M21.2942 17.3396H21.0172H19.3558V16.9646C19.3558 16.7574 19.2318 16.5896 19.0788 16.5896C18.9259 16.5896 18.8019 16.7573 18.8019 16.9646V17.3396H4.125C4.6788 18.0895 5.78648 18.4647 6.6173 18.4647C7.21312 18.4647 14.6453 18.4647 18.8019 18.4647V19.2146C18.8019 19.4218 18.9259 19.5896 19.0788 19.5896H21.2942C21.7523 19.5896 22.125 19.0849 22.125 18.4646C22.125 17.8442 21.7523 17.3396 21.2942 17.3396ZM21.2942 18.8396H19.3557V18.4646C20.6902 18.4646 21.571 18.4646 21.571 18.4646L21.5213 18.2627C21.5501 18.3218 21.571 18.3885 21.571 18.4646C21.571 18.6716 21.4468 18.8396 21.2942 18.8396Z" fill="white"/>
</g>
<rect x="0.5" y="0.5" width="24" height="24" rx="12" stroke="white"/>
<defs>
<clipPath id="clip0_43_3099">
<rect width="25" height="25" rx="12.5" fill="white"/>
</clipPath>
</defs>
</svg>
