<svg width="20" height="20" viewBox="0 0 20 20" fill="none" xmlns="http://www.w3.org/2000/svg">
<path d="M11.5267 13.8067C11.6988 13.8858 11.8927 13.9038 12.0764 13.8579C12.2601 13.8121 12.4228 13.7049 12.5375 13.5542L12.8333 13.1667C12.9886 12.9598 13.1899 12.7917 13.4213 12.676C13.6527 12.5603 13.9079 12.5001 14.1667 12.5001H16.6667C17.1087 12.5001 17.5326 12.6757 17.8452 12.9882C18.1577 13.3008 18.3333 13.7247 18.3333 14.1667V16.6667C18.3333 17.1088 18.1577 17.5327 17.8452 17.8453C17.5326 18.1578 17.1087 18.3334 16.6667 18.3334C12.6884 18.3334 8.8731 16.7531 6.06005 13.94C3.24701 11.127 1.66666 7.31166 1.66666 3.33341C1.66666 2.89139 1.84225 2.46746 2.15481 2.1549C2.46737 1.84234 2.8913 1.66675 3.33332 1.66675H5.83332C6.27535 1.66675 6.69927 1.84234 7.01183 2.1549C7.32439 2.46746 7.49999 2.89139 7.49999 3.33341V5.83341C7.49999 6.09216 7.43975 6.34734 7.32404 6.57877C7.20832 6.8102 7.04032 7.0115 6.83332 7.16675L6.44332 7.45925C6.29034 7.57606 6.18251 7.74224 6.13815 7.92954C6.09379 8.11684 6.11564 8.31373 6.19999 8.48675C7.33889 10.8 9.21201 12.6707 11.5267 13.8067Z" stroke="#558BAD" stroke-width="1.25" stroke-linecap="round" stroke-linejoin="round"/>
</svg>
