<svg width="16" height="16" viewBox="0 0 16 16" fill="none" xmlns="http://www.w3.org/2000/svg">
<g clip-path="url(#clip0_43_3471)">
<path d="M9.22137 11.0453C9.35906 11.1085 9.51418 11.1229 9.66117 11.0862C9.80816 11.0495 9.93826 10.9638 10.03 10.8433L10.2667 10.5333C10.3909 10.3677 10.5519 10.2333 10.7371 10.1407C10.9222 10.0481 11.1264 9.99992 11.3334 9.99992H13.3334C13.687 9.99992 14.0261 10.1404 14.2762 10.3904C14.5262 10.6405 14.6667 10.9796 14.6667 11.3333V13.3333C14.6667 13.6869 14.5262 14.026 14.2762 14.2761C14.0261 14.5261 13.687 14.6666 13.3334 14.6666C10.1508 14.6666 7.09853 13.4023 4.84809 11.1519C2.59766 8.90143 1.33337 5.84918 1.33337 2.66659C1.33337 2.31296 1.47385 1.97382 1.7239 1.72378C1.97395 1.47373 2.31309 1.33325 2.66671 1.33325H4.66671C5.02033 1.33325 5.35947 1.47373 5.60952 1.72378C5.85956 1.97382 6.00004 2.31296 6.00004 2.66659V4.66659C6.00004 4.87358 5.95185 5.07773 5.85928 5.26287C5.76671 5.44801 5.6323 5.60906 5.46671 5.73325L5.15471 5.96725C5.03232 6.0607 4.94605 6.19364 4.91057 6.34349C4.87508 6.49333 4.89256 6.65084 4.96004 6.78925C5.87116 8.63983 7.36966 10.1365 9.22137 11.0453Z" stroke="#E2E8F0" stroke-width="1.33333" stroke-linecap="round" stroke-linejoin="round"/>
</g>
<defs>
<clipPath id="clip0_43_3471">
<rect width="16" height="16" fill="white"/>
</clipPath>
</defs>
</svg>
