<svg preserveAspectRatio="none" width="100%" height="100%" overflow="visible" style="display: block;" viewBox="0 0 22 22" fill="none" xmlns="http://www.w3.org/2000/svg">
<g id="MapPin">
<path id="Vector" d="M18.3333 9.16667C18.3333 13.7436 13.2559 18.5103 11.5509 19.9824C11.3921 20.1019 11.1987 20.1664 11 20.1664C10.8013 20.1664 10.6079 20.1019 10.4491 19.9824C8.74408 18.5103 3.66667 13.7436 3.66667 9.16667C3.66667 7.22175 4.43928 5.35648 5.81455 3.98122C7.18982 2.60595 9.05508 1.83333 11 1.83333C12.9449 1.83333 14.8102 2.60595 16.1855 3.98122C17.5607 5.35648 18.3333 7.22175 18.3333 9.16667Z" stroke="var(--stroke-0, white)" stroke-width="1.83333" stroke-linecap="round" stroke-linejoin="round"/>
<path id="Vector_2" d="M11 11.9167C12.5188 11.9167 13.75 10.6854 13.75 9.16667C13.75 7.64788 12.5188 6.41667 11 6.41667C9.48122 6.41667 8.25 7.64788 8.25 9.16667C8.25 10.6854 9.48122 11.9167 11 11.9167Z" stroke="var(--stroke-0, white)" stroke-width="1.83333" stroke-linecap="round" stroke-linejoin="round"/>
</g>
</svg>
