<svg width="24" height="30" viewBox="0 0 24 30" fill="none" xmlns="http://www.w3.org/2000/svg">
<path d="M20 16.0869C20 21.5215 16.5 24.2388 12.34 25.8148C12.1222 25.895 11.8855 25.8912 11.67 25.8039C7.5 24.2388 4 21.5215 4 16.0869V8.47852C4 8.19025 4.10536 7.91379 4.29289 7.70995C4.48043 7.50612 4.73478 7.3916 5 7.3916C7 7.3916 9.5 6.0873 11.24 4.4352C11.4519 4.23846 11.7214 4.13037 12 4.13037C12.2786 4.13037 12.5481 4.23846 12.76 4.4352C14.51 6.09817 17 7.3916 19 7.3916C19.2652 7.3916 19.5196 7.50612 19.7071 7.70995C19.8946 7.91379 20 8.19025 20 8.47852V16.0869Z" stroke="#477694" stroke-width="1.08691" stroke-linecap="round" stroke-linejoin="round"/>
<path d="M9 15L11 17.1738L15 12.8262" stroke="#477694" stroke-width="1.08691" stroke-linecap="round" stroke-linejoin="round"/>
</svg>
