<svg preserveAspectRatio="none" width="100%" height="100%" overflow="visible" style="display: block;" viewBox="0 0 26 26" fill="none" xmlns="http://www.w3.org/2000/svg">
<g id="Droplets">
<path id="Vector" d="M7.58333 17.6583C9.96667 17.6583 11.9167 15.6758 11.9167 13.2708C11.9167 12.0142 11.2992 10.8225 10.0642 9.815C8.82917 8.8075 7.8975 7.3125 7.58333 5.74167C7.26917 7.3125 6.34833 8.81833 5.1025 9.815C3.85667 10.8117 3.25 12.025 3.25 13.2708C3.25 15.6758 5.2 17.6583 7.58333 17.6583Z" stroke="var(--stroke-0, white)" stroke-width="2.16667" stroke-linecap="round" stroke-linejoin="round"/>
<path id="Vector_2" d="M13.6067 7.15C14.3517 5.95955 14.8799 4.64646 15.1667 3.27167C15.7083 5.98 17.3333 8.58 19.5 10.3133C21.6667 12.0467 22.75 14.105 22.75 16.2717C22.7562 17.7691 22.3176 19.2348 21.4899 20.4827C20.6621 21.7306 19.4825 22.7047 18.1005 23.2814C16.7185 23.8581 15.1964 24.0114 13.7271 23.7221C12.2578 23.4327 10.9076 22.7135 9.8475 21.6558" stroke="var(--stroke-0, white)" stroke-width="2.16667" stroke-linecap="round" stroke-linejoin="round"/>
</g>
</svg>
