<svg preserveAspectRatio="none" width="100%" height="100%" overflow="visible" style="display: block;" viewBox="0 0 26 26" fill="none" xmlns="http://www.w3.org/2000/svg">
<g id="FlaskConical">
<path id="Vector" d="M15.1667 2.16667V8.66667C15.1665 9.03011 15.2578 9.38775 15.4321 9.70667L21.4012 20.6267C21.5818 20.9567 21.6733 21.328 21.6668 21.7041C21.6604 22.0802 21.5561 22.4481 21.3642 22.7717C21.1724 23.0952 20.8996 23.3633 20.5727 23.5494C20.2459 23.7356 19.8762 23.8334 19.5 23.8333H6.5C6.12384 23.8334 5.75414 23.7356 5.42727 23.5494C5.1004 23.3633 4.82763 23.0952 4.63579 22.7717C4.44395 22.4481 4.33965 22.0802 4.33315 21.7041C4.32666 21.328 4.41819 20.9567 4.59875 20.6267L10.5679 9.70667C10.7422 9.38775 10.8335 9.03011 10.8333 8.66667V2.16667" stroke="var(--stroke-0, white)" stroke-width="2.16667" stroke-linecap="round" stroke-linejoin="round"/>
<path id="Vector_2" d="M6.99075 16.25H19.0093" stroke="var(--stroke-0, white)" stroke-width="2.16667" stroke-linecap="round" stroke-linejoin="round"/>
<path id="Vector_3" d="M9.20833 2.16667H16.7917" stroke="var(--stroke-0, white)" stroke-width="2.16667" stroke-linecap="round" stroke-linejoin="round"/>
</g>
</svg>
