<svg preserveAspectRatio="none" width="100%" height="100%" overflow="visible" style="display: block;" viewBox="0 0 26 26" fill="none" xmlns="http://www.w3.org/2000/svg">
<g id="Layers">
<path id="Vector" d="M13.8992 2.36167C13.6169 2.23291 13.3103 2.16628 13 2.16628C12.6897 2.16628 12.3831 2.23291 12.1008 2.36167L2.81667 6.58667C2.62443 6.67143 2.46099 6.81026 2.34624 6.98626C2.2315 7.16226 2.17041 7.36782 2.17041 7.57792C2.17041 7.78801 2.2315 7.99358 2.34624 8.16957C2.46099 8.34557 2.62443 8.4844 2.81667 8.56917L12.1117 12.805C12.3939 12.9338 12.7006 13.0004 13.0108 13.0004C13.3211 13.0004 13.6277 12.9338 13.91 12.805L23.205 8.58C23.3972 8.49524 23.5607 8.3564 23.6754 8.18041C23.7902 8.00441 23.8513 7.79885 23.8513 7.58875C23.8513 7.37865 23.7902 7.17309 23.6754 6.99709C23.5607 6.8211 23.3972 6.68226 23.205 6.5975L13.8992 2.36167Z" stroke="var(--stroke-0, white)" stroke-width="2.16667" stroke-linecap="round" stroke-linejoin="round"/>
<path id="Vector_2" d="M2.16667 13C2.16615 13.2072 2.22508 13.4102 2.33644 13.5849C2.44781 13.7597 2.60695 13.8988 2.795 13.9858L12.1117 18.2217C12.3925 18.3488 12.6972 18.4146 13.0054 18.4146C13.3137 18.4146 13.6184 18.3488 13.8992 18.2217L23.1942 13.9967C23.3859 13.9105 23.5485 13.7704 23.662 13.5934C23.7754 13.4164 23.835 13.2102 23.8333 13" stroke="var(--stroke-0, white)" stroke-width="2.16667" stroke-linecap="round" stroke-linejoin="round"/>
<path id="Vector_3" d="M2.16667 18.4167C2.16615 18.6239 2.22508 18.8269 2.33644 19.0016C2.44781 19.1763 2.60695 19.3155 2.795 19.4025L12.1117 23.6383C12.3925 23.7655 12.6972 23.8313 13.0054 23.8313C13.3137 23.8313 13.6184 23.7655 13.8992 23.6383L23.1942 19.4133C23.3859 19.3271 23.5485 19.187 23.662 19.01C23.7754 18.8331 23.835 18.6269 23.8333 18.4167" stroke="var(--stroke-0, white)" stroke-width="2.16667" stroke-linecap="round" stroke-linejoin="round"/>
</g>
</svg>
