<svg preserveAspectRatio="none" width="100%" height="100%" overflow="visible" style="display: block;" viewBox="0 0 26 26" fill="none" xmlns="http://www.w3.org/2000/svg">
<g id="Leaf">
<path id="Vector" d="M11.9167 21.6667C10.0144 21.6724 8.17944 20.963 6.77573 19.6792C5.37201 18.3954 4.50208 16.6308 4.33846 14.7356C4.17485 12.8404 4.7295 10.9529 5.89241 9.44747C7.05533 7.94205 8.74156 6.92868 10.6167 6.60833C16.7917 5.41667 18.4167 4.85333 20.5833 2.16667C21.6667 4.33333 22.75 6.695 22.75 10.8333C22.75 16.7917 17.5717 21.6667 11.9167 21.6667Z" stroke="var(--stroke-0, white)" stroke-width="2.16667" stroke-linecap="round" stroke-linejoin="round"/>
<path id="Vector_2" d="M2.16667 22.75C2.16667 19.5 4.17083 16.9433 7.67 16.25C10.2917 15.73 13 14.0833 14.0833 13" stroke="var(--stroke-0, white)" stroke-width="2.16667" stroke-linecap="round" stroke-linejoin="round"/>
</g>
</svg>
