<svg preserveAspectRatio="none" width="100%" height="100%" overflow="visible" style="display: block;" viewBox="0 0 26 26" fill="none" xmlns="http://www.w3.org/2000/svg">
<g id="Shell">
<path id="Vector" d="M15.1667 11.9167C15.1667 12.4913 14.9384 13.0424 14.5321 13.4487C14.1257 13.8551 13.5746 14.0833 13 14.0833C12.4254 14.0833 11.8743 13.8551 11.4679 13.4487C11.0616 13.0424 10.8333 12.4913 10.8333 11.9167C10.8333 10.7674 11.2899 9.66519 12.1025 8.85254C12.9152 8.03988 14.0174 7.58333 15.1667 7.58333C16.3159 7.58333 17.4181 8.03988 18.2308 8.85254C19.0435 9.66519 19.5 10.7674 19.5 11.9167C19.5 13.6406 18.8152 15.2939 17.5962 16.5129C16.3772 17.7318 14.7239 18.4167 13 18.4167C11.2761 18.4167 9.62279 17.7318 8.40381 16.5129C7.18482 15.2939 6.5 13.6406 6.5 11.9167C6.5 9.61812 7.41309 7.41372 9.03841 5.78841C10.6637 4.16309 12.8681 3.25 15.1667 3.25C17.4652 3.25 19.6696 4.16309 21.2949 5.78841C22.9202 7.41372 23.8333 9.61812 23.8333 11.9167C23.8333 14.7898 22.692 17.5453 20.6603 19.577C18.6287 21.6086 15.8732 22.75 13 22.75C10.1268 22.75 7.37132 21.6086 5.33968 19.577C3.30803 17.5453 2.16667 14.7898 2.16667 11.9167C2.16267 9.09306 3.08349 6.34584 4.78833 4.095C4.95433 3.85019 5.16869 3.64196 5.41821 3.48314C5.66773 3.32431 5.94713 3.21826 6.23919 3.17152C6.53126 3.12477 6.8298 3.13832 7.11643 3.21132C7.40306 3.28433 7.6717 3.41525 7.90581 3.59602C8.13992 3.77679 8.33455 4.00358 8.47768 4.26242C8.62082 4.52126 8.70945 4.80666 8.7381 5.10105C8.76676 5.39544 8.73483 5.69258 8.64429 5.97416C8.55376 6.25575 8.40652 6.51581 8.21167 6.73833" stroke="var(--stroke-0, white)" stroke-width="2.16667" stroke-linecap="round" stroke-linejoin="round"/>
</g>
</svg>
