<svg preserveAspectRatio="none" width="100%" height="100%" overflow="visible" style="display: block;" viewBox="0 0 26 26" fill="none" xmlns="http://www.w3.org/2000/svg">
<g id="ShieldCheck">
<path id="Vector" d="M21.6667 14.0833C21.6667 19.5 17.875 22.2083 13.3683 23.7792C13.1323 23.8591 12.876 23.8553 12.6425 23.7683C8.125 22.2083 4.33333 19.5 4.33333 14.0833V6.5C4.33333 6.21268 4.44747 5.93713 4.65063 5.73397C4.8538 5.5308 5.12935 5.41667 5.41667 5.41667C7.58333 5.41667 10.2917 4.11667 12.1767 2.47C12.4062 2.27391 12.6981 2.16618 13 2.16618C13.3019 2.16618 13.5938 2.27391 13.8233 2.47C15.7192 4.1275 18.4167 5.41667 20.5833 5.41667C20.8707 5.41667 21.1462 5.5308 21.3494 5.73397C21.5525 5.93713 21.6667 6.21268 21.6667 6.5V14.0833Z" stroke="var(--stroke-0, white)" stroke-width="2.16667" stroke-linecap="round" stroke-linejoin="round"/>
<path id="Vector_2" d="M9.75 13L11.9167 15.1667L16.25 10.8333" stroke="var(--stroke-0, white)" stroke-width="2.16667" stroke-linecap="round" stroke-linejoin="round"/>
</g>
</svg>
