<svg preserveAspectRatio="none" width="100%" height="100%" overflow="visible" style="display: block;" viewBox="0 0 26 26" fill="none" xmlns="http://www.w3.org/2000/svg">
<g id="Sprout">
<path id="Vector" d="M7.58333 21.6667H18.4167" stroke="var(--stroke-0, white)" stroke-width="2.16667" stroke-linecap="round" stroke-linejoin="round"/>
<path id="Vector_2" d="M10.8333 21.6667C16.7917 18.9583 11.7 14.7333 14.0833 10.8333" stroke="var(--stroke-0, white)" stroke-width="2.16667" stroke-linecap="round" stroke-linejoin="round"/>
<path id="Vector_3" d="M10.2917 10.1833C11.4833 11.05 12.2417 12.5667 12.7833 14.1917C10.6167 14.625 8.99167 14.625 7.58333 13.8667C6.28333 13.2167 5.09167 11.8083 4.33333 9.31667C7.36667 8.775 9.1 9.31667 10.2917 10.1833Z" stroke="var(--stroke-0, white)" stroke-width="2.16667" stroke-linecap="round" stroke-linejoin="round"/>
<path id="Vector_4" d="M15.275 6.5C14.4491 7.79085 14.0336 9.30166 14.0833 10.8333C16.1417 10.725 17.6583 10.1833 18.7417 9.31667C19.825 8.23333 20.475 6.825 20.5833 4.33333C17.6583 4.44167 16.25 5.41667 15.275 6.5Z" stroke="var(--stroke-0, white)" stroke-width="2.16667" stroke-linecap="round" stroke-linejoin="round"/>
</g>
</svg>
