<svg preserveAspectRatio="none" width="100%" height="100%" overflow="visible" style="display: block;" viewBox="0 0 26 26" fill="none" xmlns="http://www.w3.org/2000/svg">
<g id="Wheat">
<path id="Vector" d="M2.16667 23.8333L17.3333 8.66667" stroke="var(--stroke-0, white)" stroke-width="2.16667" stroke-linecap="round" stroke-linejoin="round"/>
<path id="Vector_2" d="M3.75917 13.5742L5.41667 11.9167L7.07417 13.5742C7.78202 14.2848 8.17945 15.247 8.17945 16.25C8.17945 17.253 7.78202 18.2152 7.07417 18.9258L5.41667 20.5833L3.75917 18.9258C3.05132 18.2152 2.65388 17.253 2.65388 16.25C2.65388 15.247 3.05132 14.2848 3.75917 13.5742Z" stroke="var(--stroke-0, white)" stroke-width="2.16667" stroke-linecap="round" stroke-linejoin="round"/>
<path id="Vector_3" d="M8.0925 9.24083L9.75 7.58333L11.4075 9.24083C12.1154 9.95147 12.5128 10.9136 12.5128 11.9167C12.5128 12.9197 12.1154 13.8819 11.4075 14.5925L9.75 16.25L8.0925 14.5925C7.38465 13.8819 6.98722 12.9197 6.98722 11.9167C6.98722 10.9136 7.38465 9.95147 8.0925 9.24083Z" stroke="var(--stroke-0, white)" stroke-width="2.16667" stroke-linecap="round" stroke-linejoin="round"/>
<path id="Vector_4" d="M12.4258 4.9075L14.0833 3.25L15.7408 4.9075C16.4487 5.61814 16.8461 6.58031 16.8461 7.58333C16.8461 8.58636 16.4487 9.54852 15.7408 10.2592L14.0833 11.9167L12.4258 10.2592C11.718 9.54852 11.3205 8.58636 11.3205 7.58333C11.3205 6.58031 11.718 5.61814 12.4258 4.9075Z" stroke="var(--stroke-0, white)" stroke-width="2.16667" stroke-linecap="round" stroke-linejoin="round"/>
<path id="Vector_5" d="M21.6667 2.16667H23.8333V4.33333C23.8333 5.4826 23.3768 6.58481 22.5641 7.39746C21.7515 8.21012 20.6493 8.66667 19.5 8.66667H17.3333V6.5C17.3333 5.35073 17.7899 4.24853 18.6025 3.43587C19.4152 2.62321 20.5174 2.16667 21.6667 2.16667Z" stroke="var(--stroke-0, white)" stroke-width="2.16667" stroke-linecap="round" stroke-linejoin="round"/>
<path id="Vector_6" d="M12.4258 18.9258L14.0833 20.5833L12.4258 22.2408C11.7152 22.9487 10.753 23.3461 9.75 23.3461C8.74697 23.3461 7.78481 22.9487 7.07417 22.2408L5.41667 20.5833L7.07417 18.9258C7.78481 18.218 8.74697 17.8205 9.75 17.8205C10.753 17.8205 11.7152 18.218 12.4258 18.9258Z" stroke="var(--stroke-0, white)" stroke-width="2.16667" stroke-linecap="round" stroke-linejoin="round"/>
<path id="Vector_7" d="M16.7592 14.5925L18.4167 16.25L16.7592 17.9075C16.0485 18.6154 15.0864 19.0128 14.0833 19.0128C13.0803 19.0128 12.1181 18.6154 11.4075 17.9075L9.75 16.25L11.4075 14.5925C12.1181 13.8846 13.0803 13.4872 14.0833 13.4872C15.0864 13.4872 16.0485 13.8846 16.7592 14.5925Z" stroke="var(--stroke-0, white)" stroke-width="2.16667" stroke-linecap="round" stroke-linejoin="round"/>
<path id="Vector_8" d="M21.0925 10.2592L22.75 11.9167L21.0925 13.5742C20.3819 14.282 19.4197 14.6795 18.4167 14.6795C17.4136 14.6795 16.4515 14.282 15.7408 13.5742L14.0833 11.9167L15.7408 10.2592C16.4515 9.55132 17.4136 9.15388 18.4167 9.15388C19.4197 9.15388 20.3819 9.55132 21.0925 10.2592Z" stroke="var(--stroke-0, white)" stroke-width="2.16667" stroke-linecap="round" stroke-linejoin="round"/>
</g>
</svg>
