<svg preserveAspectRatio="none" width="100%" height="100%" overflow="visible" style="display: block;" viewBox="0 0 26 26" fill="none" xmlns="http://www.w3.org/2000/svg">
<g id="Zap">
<path id="Vector" d="M4.33333 15.1667C4.12833 15.1674 3.92733 15.1099 3.7537 15.0009C3.58007 14.8919 3.44092 14.7359 3.35243 14.551C3.26394 14.366 3.22973 14.1598 3.25379 13.9562C3.27785 13.7526 3.35918 13.56 3.48833 13.4008L14.2133 2.35083C14.2938 2.25797 14.4034 2.19522 14.5242 2.17288C14.645 2.15053 14.7699 2.16993 14.8782 2.22788C14.9865 2.28583 15.072 2.37889 15.1204 2.49178C15.1689 2.60468 15.1776 2.7307 15.145 2.84917L13.065 9.37083C13.0037 9.53498 12.9831 9.71156 13.005 9.88542C13.0269 10.0593 13.0906 10.2252 13.1908 10.369C13.2909 10.5129 13.4244 10.6302 13.5799 10.7111C13.7353 10.792 13.9081 10.8339 14.0833 10.8333H21.6667C21.8717 10.8326 22.0727 10.8901 22.2463 10.9991C22.4199 11.1081 22.5591 11.2641 22.6476 11.449C22.7361 11.634 22.7703 11.8402 22.7462 12.0438C22.7222 12.2474 22.6408 12.44 22.5117 12.5992L11.7867 23.6492C11.7062 23.742 11.5966 23.8048 11.4758 23.8271C11.355 23.8495 11.2301 23.8301 11.1218 23.7721C11.0135 23.7142 10.928 23.6211 10.8796 23.5082C10.8311 23.3953 10.8224 23.2693 10.855 23.1508L12.935 16.6292C12.9963 16.465 13.0169 16.2884 12.995 16.1146C12.9731 15.9407 12.9094 15.7748 12.8092 15.631C12.7091 15.4871 12.5756 15.3698 12.4201 15.2889C12.2647 15.208 12.0919 15.1661 11.9167 15.1667H4.33333Z" stroke="var(--stroke-0, white)" stroke-width="2.16667" stroke-linecap="round" stroke-linejoin="round"/>
</g>
</svg>
