<svg preserveAspectRatio="none" width="100%" height="100%" overflow="visible" style="display: block;" viewBox="0 0 12.3206 13.0264" fill="none" xmlns="http://www.w3.org/2000/svg">
<g id="Group">
<path id="Vector" fill-rule="evenodd" clip-rule="evenodd" d="M12.0706 9.39286V1.77381C12.0706 1.36967 11.91 0.982083 11.6243 0.696313C11.3385 0.410544 10.9509 0.25 10.5468 0.25H4.45154C4.0474 0.25 3.65981 0.410544 3.37404 0.696313C3.08827 0.982083 2.92773 1.36967 2.92773 1.77381V9.39286C2.92773 9.797 3.08827 10.1846 3.37404 10.4704C3.65981 10.7561 4.0474 10.9167 4.45154 10.9167H10.5468C10.9509 10.9167 11.3385 10.7561 11.6243 10.4704C11.91 10.1846 12.0706 9.797 12.0706 9.39286Z" stroke="var(--stroke-0, #1A6DA2)" stroke-width="0.5" stroke-linecap="round" stroke-linejoin="round"/>
<path id="Vector_2" d="M2.77916 2.10524L1.2523 2.66143C0.872659 2.79971 0.563477 3.0831 0.392739 3.44929C0.222002 3.81549 0.203688 4.2345 0.341824 4.61419L2.94754 11.7738C3.016 11.9619 3.12085 12.1346 3.25608 12.2822C3.39132 12.4297 3.55429 12.5492 3.7357 12.6337C3.91711 12.7183 4.11339 12.7662 4.31335 12.7749C4.5133 12.7836 4.71301 12.7528 4.90106 12.6843L9.14335 11.0096M5.21344 4.05952H9.02297M5.21344 5.58333H9.78487M5.21344 7.10714H7.49916" stroke="var(--stroke-0, #1A6DA2)" stroke-width="0.5" stroke-linecap="round" stroke-linejoin="round"/>
</g>
</svg>
