<svg preserveAspectRatio="none" width="100%" height="100%" overflow="visible" style="display: block;" viewBox="0 0 16 16" fill="none" xmlns="http://www.w3.org/2000/svg">
<g id="ph:solar-panel-thin">
<path id="Vector" d="M2.25 6.5C2.25 6.4337 2.27634 6.37011 2.32322 6.32322C2.37011 6.27634 2.4337 6.25 2.5 6.25H3.5C3.5663 6.25 3.62989 6.27634 3.67678 6.32322C3.72366 6.37011 3.75 6.4337 3.75 6.5C3.75 6.5663 3.72366 6.62989 3.67678 6.67678C3.62989 6.72366 3.5663 6.75 3.5 6.75H2.5C2.4337 6.75 2.37011 6.72366 2.32322 6.67678C2.27634 6.62989 2.25 6.5663 2.25 6.5ZM4.64125 3.495C4.66448 3.51823 4.69205 3.53665 4.7224 3.54922C4.75275 3.56179 4.78528 3.56826 4.81812 3.56826C4.85097 3.56826 4.8835 3.56179 4.91385 3.54922C4.9442 3.53665 4.97177 3.51823 4.995 3.495C5.01823 3.47177 5.03665 3.4442 5.04922 3.41385C5.06179 3.3835 5.06826 3.35097 5.06826 3.31813C5.06826 3.28528 5.06179 3.25275 5.04922 3.2224C5.03665 3.19205 5.01823 3.16448 4.995 3.14125L4.2875 2.4375C4.23936 2.40139 4.17981 2.38386 4.11978 2.38813C4.05975 2.3924 4.00328 2.41817 3.96072 2.46072C3.91817 2.50328 3.8924 2.55975 3.88813 2.61978C3.88386 2.67981 3.90139 2.73936 3.9375 2.7875L4.64125 3.495ZM8 2.25C8.0663 2.25 8.12989 2.22366 8.17678 2.17678C8.22366 2.12989 8.25 2.0663 8.25 2V1C8.25 0.933696 8.22366 0.870107 8.17678 0.823223C8.12989 0.776339 8.0663 0.75 8 0.75C7.9337 0.75 7.87011 0.776339 7.82322 0.823223C7.77634 0.870107 7.75 0.933696 7.75 1V2C7.75 2.0663 7.77634 2.12989 7.82322 2.17678C7.87011 2.22366 7.9337 2.25 8 2.25ZM11.1819 3.56813C11.2147 3.56815 11.2472 3.56171 11.2776 3.54916C11.3079 3.53661 11.3355 3.51821 11.3588 3.495L12.0656 2.7875C12.0928 2.76535 12.115 2.73773 12.1308 2.70643C12.1466 2.67514 12.1557 2.64087 12.1574 2.60584C12.1591 2.57082 12.1534 2.53583 12.1407 2.50315C12.128 2.47047 12.1086 2.44082 12.0837 2.41614C12.0588 2.39146 12.029 2.37229 11.9962 2.35988C11.9634 2.34747 11.9283 2.3421 11.8933 2.34411C11.8583 2.34613 11.8241 2.35548 11.793 2.37157C11.7618 2.38766 11.7344 2.41012 11.7125 2.4375L11.005 3.14125C10.97 3.17621 10.9462 3.22078 10.9365 3.2693C10.9268 3.31782 10.9318 3.36812 10.9507 3.41382C10.9697 3.45953 11.0017 3.49859 11.0429 3.52606C11.084 3.55352 11.1324 3.56816 11.1819 3.56813ZM12.5 6.75H13.5C13.5663 6.75 13.6299 6.72366 13.6768 6.67678C13.7237 6.62989 13.75 6.5663 13.75 6.5C13.75 6.4337 13.7237 6.37011 13.6768 6.32322C13.6299 6.27634 13.5663 6.25 13.5 6.25H12.5C12.4337 6.25 12.3701 6.27634 12.3232 6.32322C12.2763 6.37011 12.25 6.4337 12.25 6.5C12.25 6.5663 12.2763 6.62989 12.3232 6.67678C12.3701 6.72366 12.4337 6.75 12.5 6.75ZM5.5 6.75C5.5663 6.75 5.62989 6.72366 5.67678 6.67678C5.72366 6.62989 5.75 6.5663 5.75 6.5C5.75 5.90326 5.98705 5.33097 6.40901 4.90901C6.83097 4.48705 7.40326 4.25 8 4.25C8.59674 4.25 9.16903 4.48705 9.59099 4.90901C10.0129 5.33097 10.25 5.90326 10.25 6.5C10.25 6.5663 10.2763 6.62989 10.3232 6.67678C10.3701 6.72366 10.4337 6.75 10.5 6.75C10.5663 6.75 10.6299 6.72366 10.6768 6.67678C10.7237 6.62989 10.75 6.5663 10.75 6.5C10.75 5.77065 10.4603 5.07118 9.94454 4.55546C9.42882 4.03973 8.72935 3.75 8 3.75C7.27065 3.75 6.57118 4.03973 6.05546 4.55546C5.53973 5.07118 5.25 5.77065 5.25 6.5C5.25 6.5663 5.27634 6.62989 5.32322 6.67678C5.37011 6.72366 5.4337 6.75 5.5 6.75ZM14.7156 13.625C14.6938 13.6629 14.6623 13.6944 14.6245 13.7163C14.5867 13.7382 14.5437 13.7498 14.5 13.75H1.5C1.45603 13.7502 1.41279 13.7388 1.37465 13.7169C1.33651 13.695 1.30481 13.6635 1.28275 13.6254C1.26069 13.5874 1.24905 13.5442 1.24901 13.5002C1.24896 13.4563 1.26052 13.4131 1.2825 13.375L3.82563 8.875C3.8477 8.83676 3.87952 8.80504 3.91783 8.78309C3.95615 8.76113 3.99959 8.74971 4.04375 8.75H11.9563C12.0004 8.74971 12.0439 8.76113 12.0822 8.78309C12.1205 8.80504 12.1523 8.83676 12.1744 8.875L14.7175 13.375C14.7392 13.4132 14.7504 13.4564 14.7501 13.5003C14.7497 13.5441 14.7379 13.5872 14.7156 13.625ZM11.8125 9.25H9.83187L10.1581 10.75H12.6581L11.8125 9.25ZM9.64812 10.75L9.32187 9.25H6.68L6.35375 10.75H9.64812ZM6.24687 11.25L5.80937 13.25H10.1875L9.75 11.25H6.24687ZM3.34313 10.75H5.84312L6.16937 9.25H4.1875L3.34313 10.75ZM1.93062 13.25H5.29875L5.73625 11.25H3.05875L1.93062 13.25ZM14.0731 13.25L12.9431 11.25H10.2669L10.7012 13.25H14.0731Z" fill="var(--fill-0, #1A6DA2)"/>
</g>
</svg>
