<svg preserveAspectRatio="none" width="100%" height="100%" overflow="visible" style="display: block;" viewBox="0 0 22 22" fill="none" xmlns="http://www.w3.org/2000/svg">
<g id="Icon">
<path id="Vector" d="M3.66667 12.8333C3.4932 12.8339 3.32313 12.7853 3.17621 12.6931C3.02929 12.6008 2.91155 12.4688 2.83667 12.3124C2.76179 12.1559 2.73285 11.9814 2.75321 11.8091C2.77356 11.6368 2.84238 11.4739 2.95167 11.3392L12.0267 1.98917C12.0947 1.91059 12.1875 1.85749 12.2897 1.83859C12.392 1.81968 12.4976 1.83609 12.5893 1.88513C12.6809 1.93416 12.7532 2.01291 12.7942 2.10843C12.8352 2.20396 12.8426 2.31059 12.815 2.41083L11.055 7.92917C11.0031 8.06806 10.9857 8.21748 11.0042 8.36459C11.0227 8.5117 11.0767 8.65212 11.1614 8.77381C11.2461 8.89549 11.3591 8.99481 11.4907 9.06323C11.6222 9.13166 11.7684 9.16715 11.9167 9.16667H18.3333C18.5068 9.16608 18.6769 9.21472 18.8238 9.30694C18.9707 9.39916 19.0885 9.53117 19.1633 9.68765C19.2382 9.84412 19.2671 10.0186 19.2468 10.1909C19.2264 10.3632 19.1576 10.5261 19.0483 10.6608L9.97333 20.0108C9.90526 20.0894 9.8125 20.1425 9.71027 20.1614C9.60804 20.1803 9.50242 20.1639 9.41075 20.1149C9.31908 20.0658 9.2468 19.9871 9.20578 19.8916C9.16475 19.796 9.15743 19.6894 9.185 19.5892L10.945 14.0708C10.9969 13.9319 11.0143 13.7825 10.9958 13.6354C10.9773 13.4883 10.9233 13.3479 10.8386 13.2262C10.7539 13.1045 10.6409 13.0052 10.5093 12.9368C10.3778 12.8683 10.2316 12.8329 10.0833 12.8333H3.66667Z" stroke="var(--stroke-0, white)" stroke-width="1.83333" stroke-linecap="round" stroke-linejoin="round"/>
</g>
</svg>
