<svg width="160" height="59" viewBox="0 0 160 59" fill="none" xmlns="http://www.w3.org/2000/svg">
<rect x="48.9474" y="0.000244141" width="111.053" height="58.4211"/>
<path d="M29.2458 0.526367H31.8719L31.9022 0.54909C32.3422 0.873869 33.1783 1.18571 33.5822 1.58151C34.2355 2.22172 34.9004 2.91846 35.5394 3.57641L39.5425 7.71033C40.3153 8.50793 41.097 9.29683 41.8874 10.0769C43.0555 11.2329 44.0847 11.9748 44.3779 13.714C44.8381 16.4437 42.3022 18.496 40.5344 20.2445L37.1682 23.6092L34.1236 26.6672C33.4713 27.3201 32.7135 28.1285 31.9864 28.6714C33.7163 30.2479 35.5109 32.1703 37.2128 33.8133C38.7276 35.2599 40.2191 36.7308 41.6866 38.2255C43.0743 39.6123 44.9319 41.0682 45.021 43.1655C45.0787 44.5238 44.4302 45.6989 43.5558 46.6961C41.8231 48.5216 39.9167 50.2579 38.1172 52.0278C37.0114 53.136 35.8916 54.2296 34.7582 55.3088C33.3639 56.6621 32.193 57.962 30.3088 58.5749C30.1531 58.6251 29.9032 58.7097 29.7698 58.7829H28.7409C28.6071 58.7024 27.8779 58.4514 27.6629 58.3582C26.9982 58.0543 26.2204 57.5075 25.697 56.9982C24.0629 55.4074 22.4112 53.8176 20.7819 52.2232L18.9761 50.4533C18.4991 49.9838 17.6259 49.2647 17.5491 48.5817C17.4979 48.1262 18.1902 47.432 18.5921 47.4849C19.2833 47.5758 20.088 48.4854 20.572 48.9517C21.3168 49.6618 22.0492 50.3846 22.769 51.1196C23.6911 52.0504 24.6702 52.9577 25.602 53.9021C26.4345 54.6932 27.2122 55.587 28.1378 56.2681C28.4147 56.4721 29.0586 56.6626 29.3945 56.6512C29.8008 56.6368 30.5843 56.3396 30.888 56.0524C32.1482 54.8597 33.4324 53.5968 34.6707 52.3838L38.4386 48.6853C39.7534 47.4107 41.1768 46.161 42.3448 44.7496C42.5913 44.4517 42.7363 43.6392 42.7293 43.2507C42.7222 42.8055 42.5825 42.3725 42.3281 42.0072C42.0957 41.6803 41.4471 41.0373 41.1492 40.7347L38.9186 38.5012L30.6123 30.3439C30.5563 30.1866 29.4067 29.0694 29.2727 29.0539C29.1612 28.8146 27.3889 27.1308 27.0607 26.8063L20.7855 20.5157L18.814 18.5447C17.386 17.1141 16.0616 15.8735 16.4594 13.6342C16.7175 12.1812 17.923 11.1768 18.9075 10.1878C19.9073 9.17381 20.914 8.16662 21.9276 7.16635L25.2976 3.79383C26.017 3.0648 26.721 2.30175 27.4842 1.6196C28.017 1.14351 28.6592 0.935246 29.2095 0.551998L29.2458 0.526367ZM30.5343 27.1781L30.8086 26.909C31.8139 25.8634 32.8423 24.8688 33.8652 23.8432C35.1951 22.4843 36.5385 21.1385 37.8952 19.8064C38.7649 18.9577 39.6272 18.1014 40.4818 17.2377C41.2419 16.4688 42.3616 15.5549 42.332 14.3864C42.3232 14.0381 42.2106 13.7004 42.0088 13.4165C41.559 12.7868 40.8976 12.1624 40.3431 11.6041L38.1327 9.3702L33.8724 5.00154C33.3591 4.48426 32.8543 3.95778 32.3335 3.44701C31.6698 2.79601 31.0774 2.74474 30.1838 2.78228C30.1301 2.78469 30.0765 2.78849 30.0231 2.79367C28.8051 3.08234 28.3428 3.81896 27.5022 4.67162L25.2921 6.88439C23.8617 8.29552 22.4395 9.71499 21.0257 11.1426C20.3262 11.847 19.5418 12.5515 18.9635 13.353C18.7944 13.5876 18.7322 13.851 18.6979 14.1319C18.5131 15.6427 20.2261 16.8511 21.2047 17.8399L25.8314 22.4597L29.0989 25.7436C29.5388 26.1846 30.0716 26.7995 30.5343 27.1781Z" fill="white"/>
<path d="M0.825986 29.9752C1.70495 28.5722 2.43017 27.9906 3.6025 26.8297L6.4268 24.0119L9.10878 21.3193C10.062 20.3451 11.0724 19.1066 12.3519 18.5786C13.2172 18.2292 14.7224 18.1591 15.5743 18.5694C17.0615 19.2857 18.4651 20.983 19.6203 22.1523L24.4317 26.9612C24.79 27.3187 25.1743 27.6935 25.5303 28.0491C26.7701 29.2877 27.5687 29.7497 29.2725 29.0539C29.4065 29.0695 30.5562 30.1866 30.6121 30.3439C29.998 31.0096 29.0174 31.3892 28.1318 31.4159C26.5073 31.4649 25.1864 30.7479 24.0517 29.6417C23.2455 28.8557 22.4559 28.0676 21.6602 27.272L17.5874 23.1934C16.8328 22.4352 16.031 21.5034 15.2045 20.8491C14.6896 20.4415 13.5555 20.3612 12.989 20.6883C12.2869 21.0698 11.6688 21.7754 11.1117 22.3457C10.4312 23.0459 9.7472 23.7426 9.05952 24.4356C7.19246 26.3162 5.26591 28.1423 3.44443 30.0657C2.88515 30.6562 2.63963 31.1036 2.66888 31.9183C2.7084 33.0189 3.50345 33.6173 4.21136 34.3311L6.16519 36.2962C7.51884 37.6741 8.8814 39.0432 10.2528 40.4035C10.9308 41.0777 11.5827 41.7576 12.289 42.4069C12.857 42.929 13.3326 43.1314 14.1047 43.0955C14.9211 43.0575 15.5625 42.5271 16.1192 41.9838C16.6954 41.4212 17.2567 40.8449 17.827 40.2777L22.49 35.6208C22.8738 35.2337 23.2696 34.8409 23.6506 34.4528C24.1734 33.9202 24.4153 33.6361 25.165 33.4203C25.4772 33.5139 25.9353 33.6354 26.0751 33.9583C26.535 35.0197 24.8846 36.294 24.2303 36.9383L22.1485 39.0153C20.4774 40.6839 18.8109 42.3621 17.1016 43.9771C15.8394 45.1697 14.3421 45.7635 12.6504 45.1643C11.3975 44.7205 9.90334 43.1001 8.96002 42.1671L6.44101 39.6879L3.8178 37.0682C2.71135 35.9688 1.59772 34.9693 0.825986 33.595C-0.314249 32.1836 -0.235502 31.3866 0.825986 29.9752Z" fill="white"/>
</svg>
