<svg viewBox="0 0 46 59" fill="none" xmlns="http://www.w3.org/2000/svg">
          <path d="M29.2458 0.526316H31.8719L31.9022 0.549039C32.3422 0.873817 33.1783 1.18566 33.5822 1.58146C34.2355 2.22167 34.9004 2.91841 35.5394 3.57636L39.5425 7.71028C40.3153 8.50787 41.097 9.29678 41.8874 10.0769C43.0555 11.2328 44.0847 11.9748 44.3779 13.714C44.8381 16.4437 42.3022 18.4959 40.5344 20.2444L37.1682 23.6092L34.1236 26.6671C33.4713 27.3201 32.7135 28.1284 31.9864 28.6713C33.7163 30.2479 35.5109 32.1702 37.2128 33.8133C38.7276 35.2599 40.2191 36.7308 41.6866 38.2254C43.0743 39.6122 44.9319 41.0682 45.021 43.1655C45.0787 44.5237 44.4302 45.6989 43.5558 46.696C41.8231 48.5215 39.9167 50.2579 38.1172 52.0278C37.0114 53.1359 35.8916 54.2296 34.7582 55.3088C33.3639 56.6621 32.193 57.962 30.3088 58.5748C30.1531 58.625 29.9032 58.7096 29.7698 58.7829H28.7409C28.6071 58.7024 27.8779 58.4514 27.6629 58.3582C26.9982 58.0542 26.2204 57.5074 25.697 56.9981C24.0629 55.4074 22.4112 53.8175 20.7819 52.2232L18.9761 50.4533C18.4991 49.9838 17.6259 49.2646 17.5491 48.5817C17.4979 48.1262 18.1902 47.4319 18.5921 47.4848C19.2833 47.5757 20.088 48.4853 20.572 48.9516C21.3168 49.6618 22.0492 50.3845 22.769 51.1195C23.6911 52.0504 24.6702 52.9577 25.602 53.9021C26.4345 54.6932 27.2122 55.5869 28.1378 56.2681C28.4147 56.4721 29.0586 56.6625 29.3945 56.6512C29.8008 56.6367 30.5843 56.3396 30.888 56.0523C32.1482 54.8596 33.4324 53.5968 34.6707 52.3837L38.4386 48.6852C39.7534 47.4107 41.1768 46.1609 42.3448 44.7495C42.5913 44.4517 42.7363 43.6391 42.7293 43.2507C42.7222 42.8055 42.5825 42.3725 42.3281 42.0071C42.0957 41.6802 41.4471 41.0373 41.1492 40.7347L38.9186 38.5012L30.6123 30.3438C30.5563 30.1866 29.4067 29.0694 29.2727 29.0538C29.1612 28.8145 27.3889 27.1307 27.0607 26.8062L20.7855 20.5157L18.814 18.5446C17.386 17.114 16.0616 15.8734 16.4594 13.6341C16.7175 12.1811 17.923 11.1767 18.9075 10.1878C19.9073 9.17375 20.914 8.16657 21.9276 7.1663L25.2976 3.79378C26.017 3.06475 26.721 2.3017 27.4842 1.61954C28.017 1.14346 28.6592 0.935194 29.2095 0.551947L29.2458 0.526316ZM30.5343 27.178L30.8086 26.9089C31.8139 25.8634 32.8423 24.8688 33.8652 23.8432C35.1951 22.4842 36.5385 21.1385 37.8952 19.8064C38.7649 18.9576 39.6272 18.1014 40.4818 17.2376C41.2419 16.4687 42.3616 15.5548 42.332 14.3863C42.3232 14.038 42.2106 13.7004 42.0088 13.4164C41.559 12.7867 40.8976 12.1624 40.3431 11.6041L38.1327 9.37014L33.8724 5.00149C33.3591 4.48421 32.8543 3.95773 32.3335 3.44696C31.6698 2.79596 31.0774 2.74469 30.1838 2.78223C30.1301 2.78464 30.0765 2.78844 30.0231 2.79362C28.8051 3.08229 28.3428 3.81891 27.5022 4.67157L25.2921 6.88433C23.8617 8.29547 22.4395 9.71493 21.0257 11.1426C20.3262 11.847 19.5418 12.5515 18.9635 13.353C18.7944 13.5875 18.7322 13.8509 18.6979 14.1319C18.5131 15.6426 20.2261 16.851 21.2047 17.8399L25.8314 22.4597L29.0989 25.7435C29.5388 26.1846 30.0716 26.7994 30.5343 27.178Z" fill="#558BAD"/>
          <path d="M0.825986 29.975C1.70495 28.572 2.43017 27.9905 3.6025 26.8295L6.4268 24.0118L9.10878 21.3192C10.062 20.345 11.0724 19.1065 12.3519 18.5785C13.2172 18.2291 14.7224 18.1589 15.5743 18.5692C17.0615 19.2856 18.4651 20.9829 19.6203 22.1522L24.4317 26.961C24.79 27.3186 25.1743 27.6933 25.5303 28.049C26.7701 29.2876 27.5687 29.7495 29.2725 29.0538C29.4065 29.0693 30.5562 30.1865 30.6121 30.3438C29.998 31.0094 29.0174 31.389 28.1318 31.4157C26.5073 31.4648 25.1864 30.7477 24.0517 29.6415C23.2455 28.8556 22.4559 28.0674 21.6602 27.2719L17.5874 23.1933C16.8328 22.435 16.031 21.5033 15.2045 20.8489C14.6896 20.4413 13.5555 20.3611 12.989 20.6882C12.2869 21.0697 11.6688 21.7753 11.1117 22.3455C10.4312 23.0457 9.7472 23.7424 9.05952 24.4355C7.19246 26.3161 5.26591 28.1422 3.44443 30.0655C2.88515 30.6561 2.63963 31.1034 2.66888 31.9181C2.7084 33.0187 3.50345 33.6171 4.21136 34.3309L6.16519 36.296C7.51884 37.674 8.8814 39.0431 10.2528 40.4034C10.9308 41.0775 11.5827 41.7575 12.289 42.4067C12.857 42.9289 13.3326 43.1312 14.1047 43.0953C14.9211 43.0573 15.5625 42.527 16.1192 41.9836C16.6954 41.4211 17.2567 40.8448 17.827 40.2776L22.49 35.6207C22.8738 35.2335 23.2696 34.8408 23.6506 34.4526C24.1734 33.9201 24.4153 33.6359 25.165 33.4202C25.4772 33.5138 25.9353 33.6353 26.0751 33.9582C26.535 35.0195 24.8846 36.2939 24.2303 36.9382L22.1485 39.0151C20.4774 40.6838 18.8109 42.362 17.1016 43.977C15.8394 45.1695 14.3421 45.7633 12.6504 45.1641C11.3975 44.7203 9.90334 43.1 8.96002 42.167L6.44101 39.6878L3.8178 37.0681C2.71135 35.9686 1.59772 34.9691 0.825986 33.5949C-0.314249 32.1834 -0.235502 31.3865 0.825986 29.975Z" fill="#7CAAC6"/>
        </svg>