<svg width="146" height="188" viewBox="0 0 146 188" fill="none" xmlns="http://www.w3.org/2000/svg">
<g opacity="0.11">
<path d="M94.8347 0.000305176H103.35L103.448 0.0736355C104.875 1.12173 107.586 2.12806 108.896 3.40537C111.015 5.4714 113.171 7.71984 115.243 9.8431L128.223 23.1837C130.729 25.7576 133.264 28.3035 135.827 30.8209C139.615 34.5513 142.952 36.9457 143.903 42.5582C145.395 51.3672 137.172 57.9901 131.44 63.6326L120.524 74.4911L110.652 84.3595C108.537 86.4666 106.079 89.0751 103.721 90.8272C109.331 95.9149 115.15 102.118 120.669 107.421C125.581 112.089 130.418 116.836 135.176 121.659C139.676 126.135 145.7 130.833 145.988 137.601C146.176 141.985 144.073 145.777 141.237 148.995C135.619 154.886 129.437 160.489 123.602 166.201C120.016 169.777 116.385 173.306 112.709 176.789C108.188 181.156 104.391 185.351 98.2817 187.329C97.7765 187.491 96.9662 187.764 96.5338 188H93.1974C92.7635 187.74 90.3989 186.93 89.7016 186.63C87.5465 185.649 85.0243 183.884 83.3271 182.241C78.0281 177.107 72.6721 171.977 67.3889 166.831L61.5332 161.12C59.9866 159.605 57.1549 157.284 56.9062 155.08C56.7402 153.61 58.9849 151.369 60.2882 151.54C62.5295 151.834 65.1387 154.769 66.7082 156.274C69.1234 158.565 71.4985 160.898 73.8324 163.27C76.8227 166.274 79.9974 169.202 83.019 172.249C85.7186 174.802 88.2403 177.687 91.2416 179.885C92.1395 180.543 94.2275 181.158 95.3169 181.121C96.6344 181.074 99.1749 180.115 100.16 179.189C104.246 175.339 108.41 171.264 112.426 167.35L124.644 155.414C128.907 151.301 133.523 147.268 137.31 142.713C138.11 141.752 138.58 139.13 138.557 137.876C138.534 136.44 138.081 135.042 137.256 133.863C136.503 132.808 134.399 130.733 133.433 129.757L126.2 122.549L99.2656 96.2245C99.0842 95.717 95.3564 92.1117 94.9218 92.0615C94.5603 91.2892 88.8134 85.8554 87.7491 84.8083L67.4006 64.5081L61.0076 58.1472C56.3771 53.5305 52.0826 49.5271 53.3724 42.3006C54.2093 37.6115 58.1184 34.3703 61.3109 31.1788C64.553 27.9065 67.8173 24.6562 71.1041 21.4282L82.032 10.5447C84.3647 8.1921 86.6474 5.72966 89.1224 3.52827C90.8499 1.99188 92.9324 1.3198 94.7169 0.0830192L94.8347 0.000305176ZM99.0128 86.0081L99.9022 85.1398C103.162 81.7656 106.497 78.556 109.814 75.2463C114.126 70.8607 118.482 66.5179 122.882 62.219C125.702 59.4801 128.498 56.7169 131.269 53.9294C133.734 51.4481 137.365 48.4989 137.269 44.728C137.24 43.604 136.875 42.5143 136.221 41.5981C134.762 39.566 132.618 37.5511 130.82 35.7494L123.652 28.5403L109.837 14.4422C108.173 12.7728 106.536 11.0738 104.847 9.42553C102.695 7.32469 100.774 7.15922 97.8761 7.28037C97.7022 7.28815 97.5284 7.30041 97.3552 7.31714C93.4056 8.24869 91.9063 10.6259 89.1808 13.3775L82.0139 20.5183C77.3757 25.0722 72.7641 29.6529 68.1794 34.2601C65.9111 36.5333 63.3676 38.8067 61.4926 41.3933C60.9441 42.1501 60.7424 43.0002 60.6311 43.9068C60.0318 48.7822 65.5868 52.6819 68.7598 55.8729L83.7627 70.7816L94.3582 81.3788C95.7848 82.8022 97.5125 84.7864 99.0128 86.0081Z" fill="#B6B6B6"/>
<path d="M2.6784 95.0343C5.52861 90.5067 7.88024 88.63 11.6817 84.8834L20.84 75.7903L29.5368 67.101C32.6278 63.9572 35.9042 59.9605 40.0532 58.2565C42.859 57.1289 47.7399 56.9025 50.5022 58.2267C55.3249 60.5385 59.8762 66.0157 63.6222 69.7891L79.2239 85.3079C80.3859 86.4617 81.6322 87.671 82.7866 88.8188C86.8066 92.8158 89.3963 94.3067 94.9212 92.0613C95.3558 92.1115 99.0836 95.7168 99.2651 96.2243C97.2738 98.3724 94.094 99.5975 91.2221 99.6836C85.9546 99.8419 81.6713 97.5279 77.9919 93.9581C75.3777 91.4218 72.817 88.8783 70.2369 86.311L57.0303 73.1489C54.5833 70.702 51.9834 67.6952 49.3031 65.5835C47.6336 64.2681 43.9559 64.0092 42.1191 65.0646C39.8425 66.2958 37.838 68.573 36.0315 70.4131C33.825 72.6728 31.607 74.9211 29.3771 77.1576C23.3228 83.2266 17.0756 89.1196 11.1692 95.3264C9.35561 97.2322 8.55945 98.6758 8.65432 101.305C8.78244 104.857 11.3605 106.788 13.6561 109.091L19.9917 115.433C24.3811 119.88 28.7995 124.298 33.2464 128.688C35.4451 130.863 37.5589 133.057 39.8492 135.153C41.6909 136.838 43.2331 137.491 45.7369 137.375C48.3844 137.252 50.4641 135.541 52.2691 133.787C54.1378 131.972 55.958 130.112 57.8073 128.282L72.9278 113.253C74.1722 112.004 75.4557 110.737 76.6912 109.484C78.3863 107.765 79.1709 106.849 81.6018 106.152C82.6141 106.454 84.0995 106.846 84.553 107.888C86.0442 111.313 80.6926 115.426 78.5708 117.505L71.8203 124.208C66.4015 129.593 60.9974 135.008 55.4549 140.22C51.362 144.069 46.5066 145.985 41.0213 144.051C36.9583 142.619 32.1133 137.39 29.0544 134.379L20.8861 126.378L12.3799 117.924C8.79201 114.376 5.18088 111.151 2.6784 106.716C-1.01901 102.161 -0.763656 99.5892 2.6784 95.0343Z" fill="#B6B6B6"/>
</g>
</svg>
