<svg width="98" height="115" viewBox="0 0 98 115" fill="none" xmlns="http://www.w3.org/2000/svg">
<g opacity="0.06">
<path d="M58.4577 2.34373C60.6878 1.33121 61.855 1.24075 63.7066 1.95349C63.7066 1.95349 62.8462 1.45608 63.7703 1.99098C64.6944 2.52588 66.4086 2.97799 67.2703 3.64953C68.664 4.73576 70.0888 5.92472 71.4564 7.04584L80.0257 14.0917C81.68 15.451 83.3509 16.793 85.038 18.1173C87.5317 20.0803 89.6907 21.2987 90.5157 24.4697C91.8106 29.4466 87.024 33.6166 83.7307 37.111L77.4648 43.8303L71.7996 49.9348C70.5855 51.2385 69.1819 52.8451 67.8031 53.9567C71.4774 56.6136 75.3287 59.8999 78.9561 62.6838C82.1828 65.1324 85.3661 67.6295 88.5046 70.174C91.4689 72.531 95.382 74.946 95.8483 78.8091C96.1503 81.311 95.0155 83.5794 93.4047 85.5523C90.1924 89.1838 86.6205 92.6765 83.2667 96.2152C81.2089 98.4277 79.121 100.615 77.0037 102.779C74.4028 105.487 72.241 108.064 68.5592 109.476C68.2548 109.592 67.7669 109.786 67.5104 109.941L65.4539 110.094C65.1753 109.965 63.6833 109.609 63.2407 109.469C61.8705 109.006 60.2407 108.111 59.1245 107.248C55.6396 104.55 52.1197 101.857 48.644 99.1524L44.7914 96.1495C43.7735 95.3527 41.9293 94.1532 41.6821 92.9023C41.5172 92.068 42.8054 90.6819 43.616 90.72C45.0101 90.7853 46.7434 92.3469 47.7749 93.1369C49.3612 94.3387 50.9246 95.5658 52.4642 96.8173C54.4353 98.4007 56.5169 99.9322 58.5092 101.539C60.2819 102.878 61.9591 104.414 63.9028 105.536C64.4843 105.871 65.7974 106.128 66.4674 106.057C67.2775 105.97 68.8026 105.304 69.3702 104.728C71.7252 102.336 74.1185 99.8114 76.4269 97.3853L83.4498 89.9894C85.9028 87.4382 88.5762 84.9169 90.7168 82.1346C91.1685 81.5475 91.3468 80.0241 91.2793 79.3072C91.2039 78.4854 90.8653 77.7058 90.3065 77.0683C89.7972 76.4987 88.4122 75.4066 87.7752 74.8916L83.0099 71.095L65.2864 57.2521C65.1529 56.9698 62.7016 55.0757 62.4316 55.0669C62.1758 54.6411 58.4021 51.7924 57.7014 51.2414L44.2942 40.5472L40.0826 37.197C37.0318 34.7651 34.2142 32.6689 34.7015 28.4709C35.0177 25.747 37.2893 23.7114 39.1212 21.7372C40.9803 19.7145 42.8541 17.7033 44.7426 15.7039L51.0151 8.96967C52.3528 7.51531 53.6551 6.00036 55.0869 4.62611C56.0863 3.667 57.3414 3.18663 58.3887 2.3965L58.4577 2.34373ZM64.6955 51.4124L65.2067 50.8743C67.0724 48.7924 68.9913 46.8013 70.8951 44.7537C73.3663 42.0443 75.8666 39.3573 78.3954 36.6935C80.0171 34.9957 81.6229 33.2849 83.2125 31.5614C84.6261 30.0273 86.7385 28.1718 86.5189 26.0164C86.4533 25.374 86.182 24.7666 85.7395 24.2718C84.7538 23.1748 83.3461 22.1191 82.1611 21.1695L77.436 17.3691L68.3203 9.92762C67.2231 9.04782 66.1417 8.14976 65.0307 7.28309C63.6146 6.17848 62.4235 6.17175 60.6425 6.37393C60.5356 6.38636 60.429 6.40135 60.3229 6.41887C57.928 7.1334 57.1051 8.56361 55.5423 10.2645L51.4287 14.6828C48.7636 17.5035 46.116 20.3384 43.4862 23.1872C42.1848 24.5932 40.7138 26.0118 39.6682 27.5792C39.3623 28.0378 39.2742 28.5339 39.2442 29.0582C39.0824 31.878 42.6726 33.857 44.7643 35.5392L54.6469 43.3904L61.6292 48.9743C62.5692 49.7242 63.7187 50.7814 64.6955 51.4124Z" fill="url(#paint0_linear_167_2404)"/>
<path d="M5.69845 60.997C7.26253 58.2732 8.63217 57.0906 10.8159 54.7706L16.0739 49.1428L21.0646 43.7676C22.836 41.8254 24.6854 39.3861 27.1703 38.22C28.8518 37.4456 31.8507 37.0923 33.6098 37.7241C36.681 38.8271 39.7196 41.7556 42.1893 43.7451L52.4671 51.9184C53.2325 52.526 54.0521 53.1615 54.8126 53.7659C57.4607 55.8709 59.1205 56.6061 62.4305 55.0669C62.7005 55.0758 65.1519 56.9698 65.2853 57.2522C64.1493 58.5738 62.2415 59.4211 60.4749 59.6021C57.2347 59.9341 54.496 58.8051 52.076 56.9291C50.3566 55.5963 48.6699 54.2569 46.9702 52.9047L38.2691 45.9715C36.6566 44.6822 34.926 43.0792 33.1839 41.9926C32.0988 41.3157 29.8209 41.336 28.7336 42.0247C27.3827 42.8341 26.2441 44.2302 25.2089 45.3669C23.9451 46.7623 22.6736 48.1516 21.3943 49.5348C17.9209 53.2882 14.3211 56.9496 10.9446 60.7751C9.90788 61.9498 9.4786 62.8131 9.64903 64.3146C9.87925 66.3429 11.5506 67.3308 13.0637 68.5449L17.239 71.8866C20.134 74.2323 23.0456 76.5604 25.9737 78.8708C27.4216 80.0161 28.8179 81.1759 30.3189 82.271C31.5259 83.1516 32.5043 83.455 34.0427 83.2739C35.6694 83.0823 36.8785 82.0068 37.9164 80.9198C38.991 79.7944 40.0337 78.6458 41.0957 77.5128L49.7761 68.2124C50.49 67.4398 51.2271 66.6551 51.9354 65.8811C52.907 64.8191 53.3517 64.258 54.8204 63.7478C55.4572 63.8744 56.3896 64.0309 56.7135 64.6069C57.7785 66.5003 54.6549 69.1009 53.4355 70.3889L49.5599 74.5372C46.449 77.8696 43.3486 81.219 40.1541 84.4581C37.7951 86.8498 34.8838 88.1698 31.4203 87.3138C28.8549 86.6797 25.6457 83.9068 23.632 82.3226L18.2564 78.1146L12.6532 73.6624C10.2905 71.7947 7.92725 70.1128 6.19588 67.6875C3.72283 65.2482 3.77072 63.7635 5.69845 60.997Z" fill="url(#paint1_linear_167_2404)"/>
</g>
<defs>
<linearGradient id="paint0_linear_167_2404" x1="61.3296" y1="1.4938" x2="69.382" y2="109.802" gradientUnits="userSpaceOnUse">
<stop stop-color="#558BAD"/>
<stop offset="1" stop-color="white"/>
</linearGradient>
<linearGradient id="paint1_linear_167_2404" x1="33.0351" y1="37.2445" x2="36.7607" y2="87.3556" gradientUnits="userSpaceOnUse">
<stop stop-color="#558BAD"/>
<stop offset="1" stop-color="white"/>
</linearGradient>
</defs>
</svg>
